<defs>
<font horiz-adv-x="1097" ><font-face
    font-family="comfortaa-thin"
    units-per-em="2048"
    panose-1="2 15 4 3 6 0 0 6 0 3"
    ascent="1854"
    descent="-434"
    alphabetic="0" />
<missing-glyph horiz-adv-x="1024" d="M100 0V1434H924V0H100ZM150 50H874V1384H150V50ZM325 1148Q356 1176 383 1191Q436 1221 495 1221Q587 1221 643 1174T699 1046Q699 997 676 948T589 818Q526 738 490 686T454 587Q454 549 478 454H446Q411 551 411 602Q411
678 492 820T574 1037Q574 1094 541 1127T450 1160Q412 1160 381 1143Q355 1128 325 1103V1148ZM389 334L446 392Q457 402 466 402Q476 402 488 391L544 331Q553 320 553 311Q553 300 543 289L487 227Q473 213 466 213Q455 213 446 223L385 294Q378 303 378 312Q378
322 389 334Z" />
<glyph unicode=" " glyph-name="space" horiz-adv-x="508" />
<glyph unicode="!" glyph-name="exclam" horiz-adv-x="511" d="M189 1417H201Q240 1417 249 1371V421Q237 371 198 371Q141 380 141 415V1374Q150 1417 189 1417ZM180 181H186Q266 169 266 114V92Q266 41 193 25H184Q125 25 110 103Q126 181 180 181Z" />
<glyph unicode="&quot;" glyph-name="quotedbl" horiz-adv-x="557" d="M131 1534Q185 1520 185 1492Q165 1204 154 1204L126 1196Q104 1196 99 1297L79 1478Q90 1534 131 1534ZM384 1534Q414 1534 428 1481Q402 1212 400 1212Q383 1196 378 1196H374Q343 1196
343 1308L323 1492Q323 1524 384 1534Z" />
<glyph unicode="#" glyph-name="numbersign" horiz-adv-x="1336" d="M968 1406Q1014 1393 1014 1367V1356Q1014 1330 932 942H1074L1108 946Q1142 946 1152 895Q1143 845 1103 845H912L866 603H1034Q1097 597 1097 554Q1087 506 1025 506V508L1034 506H844Q758
70 746 45Q729 23 707 23H702Q657 32 657 66V67L746 506H500Q469 506 422 240Q384 51 377 47Q357 19 336 19Q283 30 283 67L372 506H237L215 502Q181 502 170 558V560Q170 591 223 603H396L443 845H279Q227 855 227 893Q235 942 294 942V943L306 942H464Q546 1380
550 1380Q578 1402 598 1402Q637 1402 644 1353L564 942H834Q916 1372 926 1385Q946 1406 968 1406ZM543 845L496 603H766L812 845H543Z" />
<glyph unicode="$" glyph-name="dollar" horiz-adv-x="1014" d="M452 1627H472Q501 1627 512 1576V1428Q619 1420 728 1321Q764 1286 764 1273V1250Q764 1221 713 1213Q696 1213 636 1279Q598 1311 512 1338V827Q696 759 767 626Q822 523 822 430Q822 168 553
51L512 44V-101Q499 -153 466 -153Q412 -142 412 -104V0Q412 28 304 43Q141 99 73 210L71 224Q80 273 120 273Q148 273 211 194Q306 132 412 124V749Q270 793 224 860Q129 958 129 1083V1111Q129 1286 310 1394Q367 1422 412 1422V1583Q425 1627 452 1627ZM226
1091V1060Q226 921 412 820V1316Q226 1225 226 1091ZM512 714V133H547Q721 235 721 390V429Q721 586 512 714Z" />
<glyph unicode="%" glyph-name="percent" horiz-adv-x="1610" d="M427 1411H446Q601 1411 710 1269Q773 1176 773 1079Q773 862 547 759Q484 741 442 741H435Q240 741 135 932Q100 1003 100 1076Q100 1296 334 1397Q380 1411 427 1411ZM1261 1411H1269Q1315 1402
1315 1367V1352Q1315 1339 1180 1166L323 35Q305 25 295 25H294Q244 35 244 64V80Q244 102 345 223L1237 1402Q1250 1411 1261 1411ZM198 1081V1072Q198 904 384 842L426 839H446Q611 839 672 1029L676 1075Q676 1248 494 1308L441 1317Q269 1317 206 1139L198
1081ZM1124 698Q1320 698 1434 494Q1459 420 1459 364V352Q1459 156 1251 50Q1187 25 1124 25H1117Q946 25 835 191Q789 271 789 348V371Q789 547 966 656Q1051 698 1124 698ZM883 365Q883 197 1058 131L1115 123H1132Q1293 123 1357 305L1361 344V371Q1361 539
1167 597L1125 601Q946 601 887 403L883 365Z" />
<glyph unicode="&amp;" glyph-name="ampersand" horiz-adv-x="1457" d="M465 1408H484Q661 1408 745 1213Q755 1170 755 1138V1119Q755 985 608 867L552 807L899 460H923L1084 622Q1102 635 1117 635Q1165 635 1172 575Q1172 545 1046 435L988 371L1220 138Q1229
127 1229 114V105Q1219 55 1182 55H1171Q1140 55 1048 161L908 298Q682 52 620 52Q554 25 492 25Q286 25 165 231Q130 314 130 391Q130 573 334 740L398 809Q202 992 202 1091Q194 1091 194 1134Q194 1305 379 1395Q427 1408 465 1408ZM304 1152V1119Q304 1030
464 896H486Q650 1038 650 1119V1134Q650 1246 517 1299L474 1303Q365 1303 312 1187L304 1152ZM239 400V379Q239 215 425 143L486 134Q631 134 757 294L834 372L487 719H464Q243 523 243 431L239 400Z" />
<glyph unicode="&apos;" glyph-name="quotesingle" horiz-adv-x="346" d="M144 1521Q198 1507 198 1479Q178 1191 167 1191L139 1183Q117 1183 112 1284L92 1465Q103 1521 144 1521Z" />
<glyph unicode="(" glyph-name="parenleft" horiz-adv-x="758" d="M578 1571H587Q633 1562 633 1528V1521L559 1322Q426 964 426 589Q426 121 634 -334L636 -342Q627 -393 589 -393H582Q536 -393 502 -272Q327 134 327 593Q327 1085 545 1555Q562 1571 578 1571Z" />
<glyph unicode=")" glyph-name="parenright" horiz-adv-x="758" d="M114 1575H129Q164 1575 202 1453Q376 1038 376 596Q376 75 153 -380Q136 -391 122 -391H114Q76 -391 67 -342L146 -146Q277 227 277 592Q277 1050 69 1516L67 1524Q76 1575 114 1575Z" />
<glyph unicode="*" glyph-name="asterisk" horiz-adv-x="1024" d="M497 1533Q548 1520 548 1483V1479L496 1311V1278H532L694 1379L709 1382Q760 1371 760 1331V1319Q760 1294 720 1276L601 1280H459L660 1116L668 1094V1079Q668 1041 615 1032Q566 1032 553 1125L515
1240H474L422 1062Q402 1032 376 1032Q322 1044 322 1075V1091Q322 1124 403 1170L533 1280H461L270 1276Q230 1292 230 1327V1331Q230 1371 287 1382Q306 1382 408 1306L494 1263V1311L442 1479V1483Q442 1522 497 1533Z" />
<glyph unicode="+" glyph-name="plus" horiz-adv-x="1014" d="M487 1092H499Q537 1092 546 1039V792H782Q850 786 850 739Q839 686 774 686V687L781 686H546V435Q536 382 495 382H493Q440 393 440 425V686H209L185 682Q148 682 136 743V745Q136 779 194 792H440V1043Q450
1092 487 1092Z" />
<glyph unicode="," glyph-name="comma" horiz-adv-x="557" d="M229 257H242Q356 234 356 136L350 142L356 148V132L364 76V62Q364 -107 193 -192Q161 -213 145 -213Q124 -213 118 -176Q118 -151 186 -138Q236 -109 283 -46L315 42L229 27Q106 48 106 146V150Q106
215 195 251Q207 257 229 257Z" />
<glyph unicode="-" glyph-name="hyphen" horiz-adv-x="670" d="M119 623H519Q557 623 569 568Q557 517 519 517H119Q75 517 68 574Q82 623 119 623Z" />
<glyph unicode="." glyph-name="period" horiz-adv-x="557" d="M244 249Q329 249 354 146V125Q354 66 272 30Q263 25 244 25H240Q149 25 130 141Q130 210 215 244Q225 249 244 249Z" />
<glyph unicode="/" glyph-name="slash" horiz-adv-x="770" d="M601 1492Q654 1483 654 1445V1429Q151 45 101 -77Q82 -98 63 -98H55Q14 -98 4 -43Q7 -22 556 1467Q580 1492 601 1492Z" />
<glyph unicode="0" glyph-name="zero" horiz-adv-x="989" d="M421 1412Q652 1412 776 1163Q846 947 846 764V677Q846 451 754 224Q625 25 429 25H417Q204 25 81 253Q0 460 0 715V726Q0 997 95 1213Q227 1412 421 1412ZM86 737V696Q86 429 185 243Q286 119 414
119H425Q703 119 749 533Q760 596 764 722Q764 946 686 1153Q583 1318 425 1318Q233 1318 144 1109Q86 915 86 737Z" />
<glyph unicode="1" glyph-name="one" horiz-adv-x="568" d="M284 1412H289Q335 1402 335 1372V74Q326 25 288 25H287Q237 35 237 64V1297Q106 1253 79 1253Q52 1253 40 1300V1316Q40 1352 173 1379L284 1412Z" />
<glyph unicode="2" glyph-name="two" horiz-adv-x="976" d="M406 1411Q598 1411 741 1239Q815 1127 815 1005Q815 819 629 644L173 122H791Q826 122 834 74V74Q827 25 787 25H56Q8 34 8 72V76Q8 101 72 161L660 831Q714 908 714 1005Q714 1214 497 1297Q460 1309
413 1309H402Q201 1309 113 1096Q101 1051 97 997Q80 962 54 962H49Q0 971 0 1005Q0 1218 203 1354Q311 1411 406 1411Z" />
<glyph unicode="3" glyph-name="three" horiz-adv-x="955" d="M421 1407Q576 1407 690 1266Q753 1181 753 1078V1063Q753 918 602 786Q813 633 813 430Q813 220 614 81Q512 25 412 25H401Q164 25 32 270Q0 360 0 433Q0 465 56 476Q89 476 97 424Q97 249 282 147Q350
122 412 122Q597 122 691 314Q712 373 712 415V445Q712 620 518 717L397 743Q373 761 373 784V788Q373 834 450 834Q536 834 625 944Q659 1015 659 1074Q659 1211 526 1284Q477 1310 416 1310Q259 1310 192 1140Q182 1050 179 1050Q152 1020 140 1020Q87 1032 87
1059V1078Q87 1260 270 1369Q339 1403 421 1407Z" />
<glyph unicode="4" glyph-name="four" horiz-adv-x="1103" d="M693 1400H716Q739 1400 755 1358L751 1325V547H894L928 550Q960 550 973 497Q973 466 930 450L879 454H751V64Q751 35 702 25H703Q654 34 654 71V454H121L36 450Q0 465 0 493V508Q0 522 31 546Q636
1333 668 1384Q683 1400 693 1400ZM153 547H654V1199L153 547Z" />
<glyph unicode="5" glyph-name="five" horiz-adv-x="1014" d="M135 1404L170 1400H746Q785 1400 796 1345Q796 1309 739 1297H193V868H433Q670 868 805 623Q847 522 847 446Q847 228 639 84Q533 25 429 25H417Q171 25 33 280Q0 377 0 438Q18 488 53 488Q111 488
111 376Q165 217 278 161Q363 128 421 128Q634 128 722 343Q740 387 740 446Q740 678 493 757L399 765H136Q103 765 90 807V1362Q90 1387 135 1404Z" />
<glyph unicode="6" glyph-name="six" horiz-adv-x="951" d="M544 1411Q575 1411 587 1357Q587 1337 500 1200L308 866V828L391 834H423Q616 834 753 639Q813 531 813 430Q813 229 628 93Q524 25 412 25H393Q201 25 60 217Q0 326 0 430Q0 567 102 702L506 1399Q526
1411 544 1411ZM101 449V411Q101 241 294 143Q348 126 404 122Q612 122 700 340L712 416V433Q712 649 477 730L402 737Q199 737 109 515L101 449Z" />
<glyph unicode="7" glyph-name="seven" horiz-adv-x="964" d="M80 1404H805Q851 1395 851 1369V1350Q851 1338 817 1287L110 36Q93 25 80 25H79Q30 34 30 72V80Q38 109 688 1252L708 1307H94Q41 1318 41 1354Q52 1404 80 1404Z" />
<glyph unicode="8" glyph-name="eight" horiz-adv-x="972" d="M422 1414Q581 1414 693 1272Q756 1186 756 1083V1064Q756 925 605 789Q817 636 817 432Q817 230 631 93Q527 25 414 25H395Q202 25 60 217Q0 327 0 432Q0 643 229 805Q124 886 97 996Q87 1021 87
1064V1083Q87 1259 257 1367Q341 1414 422 1414ZM185 1069Q185 907 375 842L421 838Q589 838 650 1016L659 1073Q659 1251 472 1308L419 1312Q255 1312 192 1138L185 1069ZM98 437Q98 218 322 136Q354 123 414 123Q619 123 707 350L716 411V451Q716 628 514 723Q457
741 410 741Q189 741 110 513L98 437Z" />
<glyph unicode="9" glyph-name="nine" horiz-adv-x="972" d="M406 1410Q617 1410 751 1208Q808 1101 808 1008Q808 856 682 709L182 37Q165 25 153 25Q101 35 101 75Q101 100 216 240L485 606H430L408 602Q178 602 46 821Q0 917 0 1008Q0 1232 219 1364Q314 1410
406 1410ZM100 1023V989Q100 825 279 727Q335 702 406 702Q583 702 675 868Q708 931 708 1004V1008Q708 1216 494 1297Q462 1310 410 1310H387Q212 1310 117 1114Q100 1055 100 1023Z" />
<glyph unicode=":" glyph-name="colon" horiz-adv-x="557" d="M267 927Q338 927 366 844V816Q366 759 283 729H269Q168 744 168 826Q188 927 267 927ZM255 259H271Q346 259 366 169V152Q366 85 270 62Q168 79 168 161Q189 259 255 259Z" />
<glyph unicode=";" glyph-name="semicolon" horiz-adv-x="557" d="M242 901Q313 901 341 818V790Q341 733 258 703H244Q143 718 143 800Q163 901 242 901ZM266 233Q369 233 369 66V62Q369 -106 166 -173H153Q127 -168 127 -150V-137Q134 -111 156 -111L186 -116Q307
-52 307 49L268 36Q163 52 163 134Q163 204 242 233H266Z" />
<glyph unicode="&lt;" glyph-name="less" horiz-adv-x="1014" d="M802 1077Q856 1063 856 1026V1018Q856 977 731 917Q725 907 281 635Q322 593 841 271Q856 253 856 234V230Q856 187 799 179Q778 179 667 255L133 585Q114 607 114 626Q114 669 213 712Q779 1077
797 1077H802Z" />
<glyph unicode="=" glyph-name="equal" horiz-adv-x="1014" d="M187 808H799Q838 808 849 753Q837 702 799 702H187Q144 702 136 759Q150 808 187 808ZM194 476H793Q850 465 850 424Q839 370 799 370H179Q145 370 136 431Q136 463 194 476Z" />
<glyph unicode="&gt;" glyph-name="greater" horiz-adv-x="1014" d="M192 1095Q214 1095 415 963Q841 700 870 675Q879 663 879 648V640Q879 601 796 566Q218 197 204 197H190Q137 207 137 248V252Q137 294 252 350L719 648Q172 984 151 1004Q137 1024 137 1038Q148
1095 192 1095Z" />
<glyph unicode="?" glyph-name="question" horiz-adv-x="980" d="M472 1408Q641 1408 779 1258Q875 1137 875 994Q875 816 716 678Q530 576 530 378Q522 326 483 326Q433 337 433 365V395Q433 617 674 765Q777 868 777 1005Q777 1181 592 1285Q510 1310 461 1310Q279
1310 176 1116L150 989Q129 962 112 962Q58 973 58 1009Q58 1201 248 1344Q363 1408 472 1408ZM471 173H484Q532 173 553 111V91Q539 19 475 19Q399 35 399 92Q399 159 471 173Z" />
<glyph unicode="@" glyph-name="at" horiz-adv-x="2019" d="M911 1546H947Q1352 1546 1652 1199Q1858 935 1858 619Q1858 230 1597 126Q1531 96 1463 96H1435Q1312 96 1295 131L1292 145L1296 243V305Q1085 104 891 104H859Q593 104 417 372Q352 500 352 631Q352
923 639 1093Q761 1150 875 1150Q1172 1150 1345 859Q1398 742 1398 615V209L1449 202Q1615 202 1706 364Q1748 467 1748 587V639Q1748 975 1468 1238Q1223 1440 931 1440Q500 1440 234 1061Q106 854 106 619V615Q106 225 428 -37Q658 -206 931 -206Q1161 -206
1388 -69L1399 -66Q1454 -77 1454 -121Q1454 -200 1137 -289Q1046 -312 959 -312H907Q570 -312 284 -55Q-4 235 -4 623Q-4 1017 316 1316Q588 1546 911 1546ZM458 635V623Q458 370 713 240Q795 210 859 210H891Q1104 210 1241 423Q1292 523 1292 615V631Q1292 876
1050 1005Q965 1044 875 1044H871Q613 1044 484 776Q458 693 458 635Z" />
<glyph unicode="A" glyph-name="A" horiz-adv-x="1191" d="M531 1403Q580 1403 609 1282Q1063 101 1066 77V68Q1066 33 1018 25H1016Q970 25 946 135L770 592H296L86 39Q69 25 54 25H48Q0 34 0 71V71L126 412Q462 1286 489 1377Q512 1403 531 1403ZM514 1167L337
689H721V723L552 1167H514Z" />
<glyph unicode="B" glyph-name="B" horiz-adv-x="998" d="M127 1402L118 1404H352L367 1407Q525 1407 639 1255Q695 1172 695 1074V1063Q695 943 579 811Q838 668 838 426Q838 183 585 53Q505 25 441 25H104Q55 34 55 72V1355Q62 1404 127 1404V1402ZM152 1307V834H316Q518
834 577 982Q594 1024 594 1067V1078Q594 1242 403 1303L321 1307H152ZM152 737V122H373Q603 122 684 257Q737 332 737 426V433Q737 654 495 730L385 737H152Z" />
<glyph unicode="C" glyph-name="C" horiz-adv-x="1363" d="M752 1411Q967 1411 1149 1283Q1158 1265 1158 1255V1247Q1158 1206 1103 1200H1106L978 1266Q840 1310 752 1310Q471 1310 266 1053Q164 881 164 718Q164 389 472 197Q609 126 745 126H756Q929 126 1099
232H1112Q1158 222 1158 189V178Q1158 117 923 47Q847 25 764 25H745Q403 25 172 343Q63 526 63 718Q63 1078 392 1305Q567 1411 752 1411Z" />
<glyph unicode="D" glyph-name="D" horiz-adv-x="1195" d="M127 1410L118 1412H315L357 1416Q667 1416 898 1144Q1044 954 1044 713Q1044 381 751 153Q566 25 360 25H104Q55 34 55 72V1363Q62 1412 127 1412V1410ZM153 1318V123H341Q717 123 899 487Q946 611 946
724Q946 997 706 1198Q556 1318 265 1318H153Z" />
<glyph unicode="E" glyph-name="E" horiz-adv-x="1094" d="M135 1411L126 1413H876L891 1417Q931 1417 939 1360Q929 1315 881 1315H161V753H642L696 757Q726 757 738 703Q738 673 698 655L627 659H161V123H899Q930 123 938 70Q925 25 896 25H112Q63 34 63 72V1364Q70
1413 135 1413V1411Z" />
<glyph unicode="F" glyph-name="F" horiz-adv-x="1031" d="M127 1411L118 1413H868L883 1417Q923 1417 931 1360Q921 1315 873 1315H153V753H634L688 757Q718 757 730 703Q730 673 690 655L619 659H153V93L156 73Q145 25 110 25H104Q55 34 55 72V1364Q62 1413
127 1413V1411Z" />
<glyph unicode="G" glyph-name="G" horiz-adv-x="1292" d="M720 1411Q941 1411 1114 1290Q1126 1274 1126 1259V1255Q1126 1218 1073 1208Q1069 1208 938 1270Q845 1306 758 1306H697Q475 1306 274 1093Q143 914 143 726V711Q143 404 427 210Q575 126 724 126H739Q885
126 1044 212V596H748Q700 604 700 643V644Q708 693 746 693H1098Q1133 693 1141 644V227Q1141 151 1109 135Q921 25 746 25H724Q382 25 151 343Q42 522 42 718Q42 1066 352 1294Q542 1411 720 1411Z" />
<glyph unicode="H" glyph-name="H" horiz-adv-x="1186" d="M85 1408H97Q143 1399 143 1373V750H905V1360Q913 1408 948 1408H957Q1002 1399 1002 1365V64Q1002 35 952 25H953Q905 34 905 72V657H143V68Q143 33 95 25H93Q56 25 46 78V1349Q52 1408 85 1408Z" />
<glyph unicode="I" glyph-name="I" horiz-adv-x="539" d="M109 1422L124 1420H270L283 1422Q334 1412 334 1374Q325 1321 287 1321H246V124H294Q324 124 334 73V74Q325 25 287 25H109Q60 34 60 72V73Q70 124 100 124H148V1321H107Q66 1321 60 1377V1380Q60 1408
109 1422Z" />
<glyph unicode="J" glyph-name="J" horiz-adv-x="1022" d="M837 1414H849Q883 1414 892 1365V444Q892 219 680 82Q581 25 477 25H458Q251 25 110 227Q46 333 46 445Q57 495 86 495H101Q148 495 148 401Q155 309 255 202Q354 123 469 123Q698 123 782 360Q794 405
794 448V1369Q803 1414 837 1414Z" />
<glyph unicode="K" glyph-name="K" horiz-adv-x="1112" d="M109 1409H110Q159 1401 159 1366V653Q894 1387 892 1387L919 1391H922Q967 1382 967 1348V1336Q967 1311 896 1253L414 768L957 96L959 81V72Q959 37 911 29H909Q877 29 804 136L341 698L159 512V68Q159
33 110 25H109Q72 25 62 77V1357Q72 1409 109 1409Z" />
<glyph unicode="L" glyph-name="L" horiz-adv-x="997" d="M85 1408H97Q143 1399 143 1373V122H785Q824 122 831 70Q818 25 785 25H93Q56 25 46 78V1349Q52 1408 85 1408Z" />
<glyph unicode="M" glyph-name="M" horiz-adv-x="1490" d="M99 1407H114Q153 1407 173 1326L670 215Q717 270 1036 999L1220 1395Q1232 1407 1248 1407H1263Q1296 1407 1302 1348V78Q1292 25 1255 25H1253Q1205 33 1205 68V1034H1160Q731 61 719 42Q699 25 681
25Q633 25 587 168L202 1030H157V68Q157 33 109 25H107Q70 25 60 78V1348Q66 1407 99 1407Z" />
<glyph unicode="N" glyph-name="N" horiz-adv-x="1321" d="M77 1406H92Q124 1406 154 1342Q212 1277 984 280Q979 280 979 286L995 265H1036V1361Q1045 1406 1079 1406H1090Q1125 1406 1133 1358V75Q1133 34 1077 25Q1049 25 967 147L135 1209V72Q135 37 86 29H85Q48
29 38 81V1347Q44 1406 77 1406Z" />
<glyph unicode="O" glyph-name="O" horiz-adv-x="1595" d="M731 1410Q1081 1410 1317 1085Q1423 901 1423 714Q1423 368 1109 138Q932 25 738 25H723Q366 25 140 358Q38 525 38 721Q38 1052 330 1279Q519 1410 731 1410ZM135 710Q135 424 387 229Q545 122 723
122H742Q1022 122 1215 370Q1326 530 1326 718Q1326 1041 1031 1229Q885 1313 731 1313Q436 1313 242 1057Q135 903 135 710Z" />
<glyph unicode="P" glyph-name="P" horiz-adv-x="963" d="M85 1413H431Q620 1413 754 1216Q804 1116 804 1036V1009Q804 832 643 703Q534 628 431 628H144V68Q144 34 95 25H93Q56 25 46 78V1353Q52 1413 85 1413ZM144 1315V726H404Q611 726 689 924Q706 966 706
1024Q706 1207 520 1294Q473 1315 412 1315H144Z" />
<glyph unicode="Q" glyph-name="Q" horiz-adv-x="1599" d="M739 1410Q1089 1410 1326 1085Q1431 902 1431 714Q1431 489 1276 280V258Q1435 102 1435 79V72Q1435 36 1381 25Q1352 25 1259 139Q1231 161 1206 203Q978 25 746 25H731Q375 25 148 358Q46 525 46 721Q46
1052 338 1279Q528 1410 739 1410ZM143 710Q143 424 395 229Q553 122 731 122H750Q947 122 1131 269Q961 453 949 472V489Q958 534 992 534H1003Q1029 534 1109 436L1189 356H1217Q1334 536 1334 718Q1334 1041 1039 1230Q894 1313 739 1313Q444 1313 250 1057Q143
903 143 710Z" />
<glyph unicode="R" glyph-name="R" horiz-adv-x="976" d="M81 1410H396Q583 1410 703 1211Q741 1135 741 1052V1037Q741 852 560 734L501 703Q855 93 855 87V68Q855 33 806 25H804Q766 25 713 141L394 684H140V68Q140 33 91 25H89Q52 25 42 78V1350Q48 1410 81
1410ZM140 1316V781H380Q578 781 640 994L644 1028V1060Q644 1218 469 1299Q419 1316 320 1316H140Z" />
<glyph unicode="S" glyph-name="S" horiz-adv-x="926" d="M428 1412Q602 1412 715 1258L717 1250V1230Q717 1202 667 1194Q651 1194 583 1269Q508 1317 440 1317H417Q276 1317 204 1169Q186 1132 186 1093V1062Q186 900 382 827Q504 827 642 715Q774 581 774 420Q774
223 605 96Q502 25 375 25Q171 25 39 198L34 219Q42 265 81 265Q109 265 167 192Q271 120 356 120H390Q557 120 659 308Q675 370 675 401V439Q675 605 488 707L293 761Q90 877 90 1066V1093Q90 1278 290 1383Q364 1412 428 1412Z" />
<glyph unicode="T" glyph-name="T" horiz-adv-x="1225" d="M77 1411H1008Q1053 1402 1053 1368V1353Q1053 1320 994 1314H594V68Q594 33 545 25H544Q507 25 497 78V1314H91Q38 1325 38 1361Q49 1411 77 1411Z" />
<glyph unicode="U" glyph-name="U" horiz-adv-x="1168" d="M79 1408H91Q137 1399 137 1373V567Q137 293 296 198Q394 122 518 122Q755 122 874 365Q899 441 899 522V1360Q907 1408 942 1408H951Q996 1399 996 1365V484Q996 271 790 111Q661 25 529 25H503Q280
25 115 245Q40 362 40 537V1349Q46 1408 79 1408Z" />
<glyph unicode="V" glyph-name="V" horiz-adv-x="1246" d="M91 1416Q132 1416 167 1275L546 271H583L1004 1397Q1024 1416 1044 1416H1048Q1085 1416 1094 1367L618 83Q605 25 566 25H563Q515 25 484 155Q34 1343 34 1361V1369Q34 1407 91 1416Z" />
<glyph unicode="W" glyph-name="W" horiz-adv-x="1777" d="M76 1411H92Q135 1411 151 1316L437 324H482Q778 1370 794 1394Q810 1411 827 1411H838Q884 1411 901 1294Q929 1218 1183 320H1225L1536 1390Q1552 1411 1566 1411H1579Q1624 1402 1624 1376V1361L1244
43Q1225 25 1206 25H1202Q1153 25 1136 145Q889 983 854 1124H813L502 46Q485 25 463 25H448Q408 25 389 149Q64 1256 38 1364Q48 1411 76 1411Z" />
<glyph unicode="X" glyph-name="X" horiz-adv-x="1300" d="M68 1412H84Q113 1412 135 1368L581 797L1056 1407Q1065 1412 1077 1412H1089Q1123 1412 1132 1363V1362Q1132 1338 1036 1226L640 717L1126 95L1132 73V74Q1123 25 1085 25H1081Q1048 25 1019 85L581
644L104 33Q94 25 80 25H78Q29 34 29 72V83Q29 99 187 291L521 724Q40 1333 32 1351L29 1365Q40 1412 68 1412Z" />
<glyph unicode="Y" glyph-name="Y" horiz-adv-x="1153" d="M81 1408H97Q129 1408 153 1349L507 820H538Q915 1389 926 1398Q940 1408 946 1408H969Q995 1408 1008 1358Q1008 1337 883 1166L572 702V84Q565 25 533 25H517Q486 25 474 65V682Q474 704 310 947L44
1347L42 1360Q53 1408 81 1408Z" />
<glyph unicode="Z" glyph-name="Z" horiz-adv-x="1271" d="M73 1412H1094Q1128 1412 1137 1363V1362Q1137 1342 1060 1252L186 123H1088Q1137 116 1137 76V74Q1128 25 1090 25H81Q43 25 34 82Q34 99 211 319L982 1315H87Q34 1326 34 1362Q45 1412 73 1412Z" />
<glyph unicode="[" glyph-name="bracketleft" horiz-adv-x="779" d="M319 1553L333 1552H627L667 1556Q717 1538 717 1509V1497Q717 1464 674 1446L611 1450H353V-292H667Q717 -303 717 -335V-347Q717 -391 657 -398H304Q247 -387 247 -343V1488Q252 1552 319 1552V1553Z" />
<glyph unicode="\" glyph-name="backslash" horiz-adv-x="691" d="M50 1523H54Q111 1523 146 1369Q511 392 653 -14Q643 -67 602 -67H586Q545 -67 506 83Q34 1356 0 1470Q8 1523 50 1523Z" />
<glyph unicode="]" glyph-name="bracketright" horiz-adv-x="758" d="M73 1556L128 1552H406L447 1556Q496 1542 496 1505V-355Q496 -387 443 -398H77Q33 -398 26 -338V-335Q26 -305 78 -289L95 -292H390V1450H144L72 1446Q26 1462 26 1501Q26 1539 73 1556Z" />
<glyph unicode="^" glyph-name="asciicircum" horiz-adv-x="942" d="M364 1409H375Q413 1409 465 1305Q694 959 694 946V922Q694 888 633 879Q600 879 516 1035L366 1255L130 890Q107 879 91 879Q57 879 44 937Q44 958 120 1068Q324 1391 338 1399L364 1409Z" />
<glyph unicode="_" glyph-name="underscore" horiz-adv-x="958" d="M50 -54H932Q984 -63 984 -99V-109Q974 -156 939 -156H50Q8 -156 1 -101Q14 -54 50 -54Z" />
<glyph unicode="`" glyph-name="grave" horiz-adv-x="752" d="M261 1386H270Q297 1386 360 1310Q533 1147 533 1133L536 1115Q526 1064 486 1064H478Q445 1064 332 1193Q211 1297 211 1331V1343Q211 1375 261 1386Z" />
<glyph unicode="a" glyph-name="a" horiz-adv-x="1199" d="M529 998Q805 998 966 727Q1015 619 1015 500V67Q1015 33 967 25H965Q934 25 919 61V59L923 152V215Q723 25 543 25H514Q267 25 102 274Q42 393 42 515Q42 786 309 945Q422 998 529 998ZM138 519V508Q138
270 377 149Q454 121 514 121H543Q743 121 872 320Q919 414 919 500V515Q919 745 693 866Q613 902 529 902H525Q283 902 162 651Q138 573 138 519Z" />
<glyph unicode="b" glyph-name="b" horiz-adv-x="1230" d="M119 1407H124Q170 1397 170 1367V817Q370 1010 566 1010Q755 1010 910 866Q1058 711 1058 518Q1058 241 795 82Q682 25 577 25H547Q349 25 177 212Q73 351 73 544V1367Q73 1397 119 1407ZM170 529V510Q170
263 428 143Q498 122 554 122H577Q818 122 941 380Q961 459 961 502V525Q961 771 698 893Q618 913 573 913H558Q317 913 195 660Q170 587 170 529Z" />
<glyph unicode="c" glyph-name="c" horiz-adv-x="1036" d="M522 1001Q710 1001 862 861Q868 851 868 839V837Q859 789 822 789H818Q799 789 711 856Q621 902 533 902H511Q277 902 158 658Q130 575 130 509Q130 272 374 149Q448 121 530 121Q668 121 796 228L817
233H826Q860 233 868 185V184Q868 124 646 39Q570 25 533 25H503Q307 25 138 211Q34 357 34 513Q34 751 245 913Q379 1001 522 1001Z" />
<glyph unicode="d" glyph-name="d" horiz-adv-x="1200" d="M957 1407H969Q1015 1398 1015 1371V623L1019 495Q1019 355 904 201Q741 25 538 25H508Q310 25 139 212Q34 360 34 518Q34 757 247 921Q382 1010 527 1010Q714 1010 922 824V1308L918 1364Q932 1407 957
1407ZM131 529V510Q131 263 389 143Q459 122 515 122H538Q779 122 902 380Q922 459 922 502V525Q922 771 659 893Q579 913 534 913H519Q278 913 156 660Q131 587 131 529Z" />
<glyph unicode="e" glyph-name="e" horiz-adv-x="1166" d="M518 1000Q800 1000 956 732Q1009 628 1009 505V488Q1000 436 963 436H141Q197 245 354 160Q445 125 525 125Q618 125 730 181H744Q788 172 788 138V127Q788 57 542 25H518Q256 25 97 271Q34 386 34 513Q34
780 287 939Q410 1000 518 1000ZM134 532H906Q906 642 810 773Q678 897 548 897H507Q314 897 190 709Q147 634 134 532Z" />
<glyph unicode="f" glyph-name="f" horiz-adv-x="866" d="M575 1412H664Q694 1412 703 1355Q703 1326 649 1314H595Q438 1314 388 1141L385 1058V980H574L634 983Q661 983 673 933V925Q673 897 626 885H385V109L388 67Q388 37 335 25Q303 25 287 67L291 109V885H68Q38
885 29 942Q29 962 70 983L140 980H287V1073Q287 1310 492 1397L575 1412Z" />
<glyph unicode="g" glyph-name="g" horiz-adv-x="1208" d="M523 996Q739 996 897 816Q1007 666 1007 534L1003 408V-41Q1003 -155 821 -296Q679 -388 523 -388Q257 -388 83 -150Q54 -102 54 -90V-79Q54 -50 99 -40H107Q140 -40 170 -121Q314 -301 523 -301Q775
-301 904 -68L912 -14V212Q712 28 534 28H504Q310 28 142 212Q39 357 39 512Q39 748 248 908Q381 996 523 996ZM134 523V505Q134 262 388 144Q457 123 512 123H534Q772 123 893 377Q912 454 912 497V520Q912 762 654 882Q574 901 530 901H516Q278 901 158 651Q134
581 134 523Z" />
<glyph unicode="h" glyph-name="h" horiz-adv-x="1125" d="M112 1405H124Q170 1396 170 1370V854Q349 1009 505 1009Q743 1009 886 783Q940 684 940 596V68Q940 33 891 25H890Q855 25 843 71V574Q843 795 615 892Q560 908 505 908Q278 908 186 668Q170 616 170
502V68Q170 33 121 25H120Q85 25 73 71V1356Q83 1405 112 1405Z" />
<glyph unicode="i" glyph-name="i" horiz-adv-x="431" d="M149 1261Q199 1248 199 1222V1200Q199 1169 143 1161Q114 1161 103 1211Q112 1261 149 1261ZM149 1005Q199 992 199 966V68Q199 33 150 25H148Q112 25 102 77V943Q109 1005 149 1005Z" />
<glyph unicode="j" glyph-name="j" horiz-adv-x="656" d="M412 1251Q460 1242 460 1203Q460 1162 409 1155Q366 1167 366 1192V1214Q366 1240 412 1251ZM415 1001Q460 992 460 956V28Q460 -232 213 -352Q127 -383 74 -383L70 -379H44L41 -383H49Q8 -383 0 -325Q0
-294 58 -285Q282 -285 358 -55L366 60V956Q366 993 415 1001Z" />
<glyph unicode="k" glyph-name="k" horiz-adv-x="1056" d="M116 1410H128Q175 1400 175 1374V581Q748 961 831 1008H843Q882 1008 890 952Q890 923 781 865Q491 669 462 664V631L887 91L890 77V78Q881 29 843 29H836Q805 29 723 147L374 581H352L175 468V68Q175
33 126 25H124Q89 25 77 71V1360Q87 1410 116 1410Z" />
<glyph unicode="l" glyph-name="l" horiz-adv-x="473" d="M104 1402H116Q162 1393 162 1367V122H266Q295 122 305 72V74Q297 25 258 25H112Q75 25 65 77V1344Q71 1402 104 1402Z" />
<glyph unicode="m" glyph-name="m" horiz-adv-x="1675" d="M109 981Q157 969 157 944V855Q313 981 447 981Q625 981 785 785Q857 918 1028 970L1109 981Q1323 981 1449 774Q1490 688 1490 610V62Q1490 34 1443 25H1444Q1397 33 1397 70V602Q1397 801 1187 876L1132
884H1093Q925 884 837 692Q825 647 825 617V75Q816 25 781 25H779Q732 33 732 66V518Q732 717 675 770Q590 884 450 884H439Q247 884 169 679Q157 630 157 554V66Q157 33 110 25H109Q74 25 64 75V921Q70 981 109 981Z" />
<glyph unicode="n" glyph-name="n" horiz-adv-x="1197" d="M125 998Q174 986 174 959V821Q371 998 553 998Q753 998 908 831Q1021 691 1021 538V63Q1021 35 973 25V25Q925 34 925 71V489Q925 787 665 883Q602 899 553 899H542Q324 899 206 675Q174 605 174 459V67Q174
33 126 25H124Q88 25 78 77V936Q85 998 125 998Z" />
<glyph unicode="o" glyph-name="o" horiz-adv-x="1170" d="M522 993Q709 993 861 851Q1006 699 1006 509Q1006 237 748 81Q637 25 533 25H503Q309 25 141 209Q38 354 38 509Q38 745 247 905Q380 993 522 993ZM137 520V502Q137 283 347 164Q424 124 511 124H533Q759
124 879 358Q907 432 907 502V520Q907 703 741 826Q643 894 518 894Q271 894 157 637Q137 573 137 520Z" />
<glyph unicode="p" glyph-name="p" horiz-adv-x="1172" d="M542 995Q727 995 878 854Q1023 702 1023 513Q1023 242 766 87Q655 31 552 31H522Q356 31 153 214V-353Q153 -380 101 -391Q71 -391 59 -339V480Q59 847 405 974Q447 987 542 995ZM157 524V505Q157 288
366 169Q443 129 530 129H552Q778 129 897 362Q925 436 925 505V524Q925 706 760 829Q661 897 537 897Q291 897 178 640Q157 576 157 524Z" />
<glyph unicode="q" glyph-name="q" horiz-adv-x="1178" d="M525 985Q710 985 862 845Q1005 705 1005 472V-343Q993 -395 963 -395Q911 -384 911 -357V208Q712 25 536 25H507Q314 25 147 208Q45 352 45 505Q45 739 252 898Q384 985 525 985ZM142 516V498Q142 281
351 163Q427 123 514 123H536Q761 123 880 355Q908 429 908 498V516Q908 697 743 820Q645 888 521 888Q276 888 163 632Q142 569 142 516Z" />
<glyph unicode="r" glyph-name="r" horiz-adv-x="925" d="M146 1006Q196 993 196 967V828Q396 1006 574 1006Q670 1006 775 961Q794 941 794 922V920Q786 872 748 872V872Q645 905 589 905H567Q330 905 220 660Q196 594 196 512V68Q196 33 147 25H145Q109 25 99
77V943Q106 1006 146 1006Z" />
<glyph unicode="s" glyph-name="s" horiz-adv-x="968" d="M420 992Q663 992 800 776L802 754V751Q802 714 751 706Q718 706 673 782Q560 891 420 891Q235 891 126 712L122 686Q122 612 254 600Q677 498 713 485Q806 423 806 329V326Q806 187 594 66Q503 25 398
25Q186 25 37 225Q27 241 27 252V274Q27 306 85 312Q106 312 165 227Q273 127 413 127Q582 127 695 289L704 318V326Q704 396 617 406Q128 515 103 537Q20 600 20 688Q20 814 211 936Q316 992 420 992Z" />
<glyph unicode="t" glyph-name="t" horiz-adv-x="704" d="M245 1365H256Q300 1356 300 1331V976H478L511 980Q540 980 553 928Q553 898 512 883L462 887H300V323Q300 164 412 125L500 118H542Q570 118 579 71V72Q571 25 534 25H457Q298 25 220 200Q207 242 207
301V887H108L53 883Q13 898 13 929Q21 976 79 976V977L90 976H207V1308Q213 1365 245 1365Z" />
<glyph unicode="u" glyph-name="u" horiz-adv-x="1188" d="M117 1002Q166 990 166 963V562Q166 291 323 196Q422 121 544 121Q778 121 896 362Q921 440 921 517V950Q931 1002 968 1002Q1017 991 1017 956V64Q1017 35 969 25V25Q921 34 921 71V167H882Q726 25 555
25H529Q308 25 145 243Q70 359 70 532V940Q77 1002 117 1002Z" />
<glyph unicode="v" glyph-name="v" horiz-adv-x="1132" d="M72 1004H79Q120 1004 158 895L503 186Q874 972 892 991Q909 1004 922 1004Q974 994 974 958V954Q974 941 812 604L536 39Q518 25 503 25H500Q454 25 410 153Q47 895 29 947V959Q38 1004 72 1004Z" />
<glyph unicode="w" glyph-name="w" horiz-adv-x="1416" d="M82 984Q129 984 153 855L340 281H380Q591 953 600 966Q619 981 640 984Q683 984 702 881L896 281H936Q1140 928 1155 962Q1176 984 1191 984Q1242 974 1242 939L954 43Q935 25 917 25H914Q867 25 842
150Q666 684 666 721H616L398 45Q383 25 361 25H358Q324 25 308 74L34 936Q44 984 82 984Z" />
<glyph unicode="x" glyph-name="x" horiz-adv-x="968" d="M86 981Q117 981 180 885Q368 660 415 592H442Q483 632 751 971Q758 977 779 980Q825 969 825 944V922Q825 908 699 761L491 499Q825 97 825 88V66Q825 33 778 25H777Q748 25 701 99L432 429Q121 40 109
32Q98 25 86 25H83Q46 25 38 79Q38 97 172 248L372 503L43 914L39 933Q48 981 86 981Z" />
<glyph unicode="y" glyph-name="y" horiz-adv-x="913" d="M724 987Q770 978 770 946V943Q768 923 427 111Q267 -286 251 -306Q240 -315 223 -319Q179 -310 179 -285V-268Q179 -260 336 118V131L4 941V936Q13 983 49 983Q89 983 126 861Q353 324 364 279H404Q683
960 694 973Q711 987 724 987Z" />
<glyph unicode="z" glyph-name="z" horiz-adv-x="1018" d="M104 984L115 983H756L787 987Q830 973 830 949V927Q830 914 751 828L186 119H787Q830 110 830 78V66Q830 33 783 25H83Q46 25 38 80Q38 98 183 265L682 893H134L79 889Q38 904 38 936Q46 983 104 983V984Z" />
<glyph unicode="{" glyph-name="braceleft" horiz-adv-x="1014" d="M659 1565H798Q846 1565 857 1526V1506Q857 1478 811 1467H669Q572 1467 572 1366V787Q572 747 520 663Q575 601 575 536V-50Q575 -136 673 -136H811Q857 -145 857 -179V-194Q857 -224 807 -234H661Q529
-234 481 -87L477 -41V532Q477 602 402 618H317Q264 629 264 666Q275 717 304 717H365Q473 717 473 795V1369Q473 1516 621 1561L659 1565Z" />
<glyph unicode="|" glyph-name="bar" horiz-adv-x="1014" d="M479 1594H485Q531 1585 531 1550V-358Q531 -386 476 -398Q442 -398 431 -340V1540Q440 1594 479 1594Z" />
<glyph unicode="}" glyph-name="braceright" horiz-adv-x="1014" d="M152 1553H306Q429 1553 480 1415L483 1386V807Q483 718 594 718H650Q689 706 689 676V661Q689 632 641 622H564Q479 622 479 503V-51Q479 -160 341 -213L301 -217H154Q106 -210 106 -171V-169Q114
-121 148 -121H287Q383 -121 383 -36V526Q383 602 438 671Q387 745 387 792V1372Q387 1457 291 1457H148Q114 1457 106 1503Q114 1553 152 1553Z" />
<glyph unicode="~" glyph-name="asciitilde" horiz-adv-x="1014" d="M348 826H372Q456 826 574 747L619 735H650L743 763Q813 749 813 693Q813 618 654 598H622Q539 598 421 678L375 689H345L254 665H249Q186 678 186 727V741Q186 793 274 813Q309 826 348 826Z" />
<glyph unicode="&#xa0;" glyph-name="space" horiz-adv-x="508" />
<glyph unicode="&#xa1;" glyph-name="exclamdown" horiz-adv-x="672" d="M275 1302H289Q334 1302 352 1256L358 1233Q358 1173 280 1163Q227 1163 216 1235Q231 1302 275 1302ZM287 1040V1040Q330 1033 330 999V72Q323 29 289 29H284Q244 37 244 67V1002Q244 1033
287 1040Z" />
<glyph unicode="&#xa2;" glyph-name="cent" horiz-adv-x="1105" d="M747 1362H756Q799 1354 799 1321V1314L676 954Q861 869 861 820V819Q853 772 817 772H813Q795 772 708 839L644 863L393 142Q463 119 531 119Q666 119 792 223L812 229H820Q853 229 861 182V180Q861
123 645 40Q571 26 535 26H506Q460 26 358 53Q260 -247 249 -255L211 -269Q165 -258 165 -222Q165 -212 276 94Q48 264 48 502Q48 759 295 919Q417 978 527 978L586 974Q706 1339 716 1346Q734 1362 747 1362ZM141 499Q141 332 284 203H315L552 882H513Q285 882
168 643Q141 562 141 499Z" />
<glyph unicode="&#xa3;" glyph-name="sterling" horiz-adv-x="946" d="M463 1448H502Q671 1448 787 1293L790 1277Q777 1224 738 1224Q713 1224 654 1290Q579 1347 502 1347H479Q308 1347 238 1146L234 1092Q234 1006 384 749H628Q682 738 682 700Q670 648 641
648H407L415 594V546Q415 426 309 216L276 135H703Q726 135 766 227Q787 247 804 247Q860 236 860 194Q860 173 791 48Q775 34 757 34H189Q151 34 141 88Q141 99 289 421Q315 495 315 559L310 648H129Q79 658 79 695Q90 749 131 749H245V784Q133 988 133 1094Q133
1310 360 1427Q431 1448 463 1448Z" />
<glyph unicode="&#xa4;" glyph-name="currency" horiz-adv-x="1014" d="M229 1022H249Q274 1022 352 935Q428 978 481 978H505Q571 978 646 935Q721 1022 741 1022H765Q808 1009 808 975V967Q808 940 722 860Q764 780 764 715Q764 657 723 559Q808 491 808 463V451Q794
404 765 404H745Q729 404 652 484H630Q566 448 493 448Q445 448 345 489Q276 404 245 404H239Q190 414 190 451V463Q190 493 276 564Q234 648 234 699V719Q234 782 276 866Q190 936 190 963V979Q203 1022 229 1022ZM332 715Q332 597 469 550H501Q630 550 662 696V730Q628
876 517 876L503 881Q332 852 332 715Z" />
<glyph unicode="&#xa5;" glyph-name="yen" horiz-adv-x="1262" d="M122 1205H288Q328 1205 337 1151Q337 1125 253 1101Q494 728 573 619H607Q921 1074 921 1119H899Q876 1133 876 1149V1163Q889 1205 925 1205H1069Q1109 1205 1117 1151Q1117 1134 1066 1101L930
899H1049Q1110 893 1110 854V847Q1110 815 1063 806H864L724 594H1056Q1110 583 1110 549V545Q1110 507 1036 497V499L1026 500H646V66Q646 37 594 25V25Q549 25 534 63L538 121V479L514 500H153L123 496Q70 507 70 545Q70 584 124 594H459Q322 806 303 806H115Q70
819 70 851Q70 893 131 899H257Q121 1113 104 1114Q70 1129 70 1164Q70 1193 122 1205Z" />
<glyph unicode="&#xa6;" glyph-name="brokenbar" horiz-adv-x="770" d="M334 1590H340Q386 1581 386 1546V865Q386 830 336 821H334Q296 821 286 875V1536Q295 1590 334 1590ZM335 371Q386 358 386 331V-362Q386 -390 331 -402Q297 -402 286 -344V307Q293 371 335 371Z" />
<glyph unicode="&#xa7;" glyph-name="section" horiz-adv-x="1014" d="M486 1415H521Q674 1415 789 1278L791 1266Q785 1228 762 1228H743Q733 1228 664 1293Q589 1341 506 1341Q306 1341 240 1118V1068Q240 896 433 815Q616 787 659 739Q776 636 776 524V474Q776
369 625 240Q803 105 803 -62Q803 -252 622 -362Q541 -402 467 -402H455Q285 -402 173 -261L170 -246Q170 -218 217 -211Q229 -211 284 -267Q368 -328 455 -328Q634 -328 712 -139L725 -68Q725 134 503 207Q386 221 341 250Q185 355 185 497V516Q185 661 342 767Q162
910 162 1068V1083Q162 1273 347 1379Q417 1415 486 1415ZM263 521V505Q263 355 431 297L474 293H498Q639 293 698 461L702 504Q702 667 519 720L476 724Q328 724 268 561L263 521Z" />
<glyph unicode="&#xa8;" glyph-name="dieresis" horiz-adv-x="1024" d="M264 1284Q322 1270 322 1231Q311 1174 269 1174Q212 1185 212 1226Q226 1284 264 1284ZM716 1284Q774 1270 774 1231Q763 1174 721 1174Q664 1185 664 1226Q678 1284 716 1284Z" />
<glyph unicode="&#xa9;" glyph-name="copyright" horiz-adv-x="1674" d="M808 1416Q1156 1416 1386 1103Q1502 927 1502 718Q1502 345 1156 118Q991 24 800 24Q487 24 259 294Q110 492 110 718Q110 1058 409 1289Q598 1416 808 1416ZM169 729V711Q169 374 490
161Q654 79 808 79Q1135 79 1345 373Q1447 538 1447 722Q1447 1053 1141 1266Q977 1357 827 1357H789Q496 1357 287 1091Q169 921 169 729ZM819 1205Q999 1205 1151 1070Q1159 1059 1159 1046V1038Q1159 997 1104 992H1102Q1095 992 989 1068Q887 1108 812 1108Q570
1108 446 860Q421 789 421 726V699Q421 503 618 372Q720 320 812 320Q955 320 1090 432L1110 437Q1159 430 1159 391V383Q1159 328 958 245Q867 224 812 224Q529 224 371 499Q321 609 321 718Q321 972 558 1134Q674 1205 819 1205Z" />
<glyph unicode="&#xaa;" glyph-name="ordfeminine" horiz-adv-x="648" d="M289 1397H321Q471 1397 549 1229L565 1153L561 1089V949L565 925Q558 898 537 889H525Q503 889 489 913V961Q403 889 317 889H309Q125 889 61 1085Q53 1105 53 1145Q53 1321 249 1393L289
1397ZM129 1137Q129 1007 285 965H317Q434 965 485 1105L489 1145Q489 1263 357 1317L309 1325Q188 1325 133 1189L129 1137Z" />
<glyph unicode="&#xab;" glyph-name="guillemotleft" horiz-adv-x="944" d="M481 787Q504 780 504 780V760Q504 749 325 540L289 491Q508 241 508 226Q504 205 493 205H481Q455 224 244 487L242 498Q242 509 356 640Q469 783 487 783L491 787H481ZM737 782Q752
774 752 764V760Q752 748 551 513L541 482Q744 246 752 230V218Q749 201 737 201H733Q715 201 649 296Q490 474 490 488V499Q687 748 727 780L737 782Z" />
<glyph unicode="&#xac;" glyph-name="logicalnot" horiz-adv-x="1014" d="M122 727H832Q881 717 881 680V332Q881 300 828 289V289Q775 299 775 340V621H136Q79 632 79 673Q91 727 122 727Z" />
<glyph unicode="&#xad;" glyph-name="hyphen" horiz-adv-x="670" d="M119 623H519Q557 623 569 568Q557 517 519 517H119Q75 517 68 574Q82 623 119 623Z" />
<glyph unicode="&#xae;" glyph-name="registered" horiz-adv-x="1674" d="M776 1453Q1127 1453 1359 1139Q1476 962 1476 753Q1476 380 1128 151Q961 57 769 57Q453 57 224 327Q73 527 73 753Q73 1094 374 1326Q565 1453 776 1453ZM91 775V757Q91 419 415 206Q579
124 734 124Q1064 124 1275 418Q1378 584 1378 768Q1378 1100 1070 1314Q905 1405 753 1405H715Q420 1405 210 1138Q91 967 91 775ZM591 1191H777Q964 1191 1022 1000Q1029 982 1029 944Q1029 810 863 720Q1100 311 1108 290V291Q1099 267 1088 267H1073Q1055 267
1015 352L806 712H619V293Q615 267 602 267H583Q567 276 567 287V1161Q572 1191 591 1191ZM619 1139V760H739Q916 760 959 874Q976 913 976 955Q976 1078 840 1129Q819 1139 781 1139H619Z" />
<glyph unicode="&#xaf;" glyph-name="overscore" horiz-adv-x="806" d="M-37 1751H804Q852 1742 852 1706V1696Q843 1649 810 1649H-37Q-75 1649 -82 1704Q-69 1751 -37 1751Z" />
<glyph unicode="0;" glyph-name="degree" horiz-adv-x="674" d="M315 1366Q231 1366 171 1306T110 1161Q110 1076 170 1017T315 958Q400 958 459 1017T518 1161Q518 1246 459 1306T315 1366ZM314 1417Q419 1417 492 1343T566 1164Q566 1060 492 986T312 911Q205
911 133 984T60 1164Q60 1270 134 1343T314 1417Z" />
<glyph unicode="1;" glyph-name="plusminus" horiz-adv-x="1014" d="M488 1163H512Q538 1163 555 1117L551 1081V863H798Q855 854 855 812V804Q855 767 806 753L782 757H551V543L555 499Q555 466 497 453Q462 453 445 499L449 543V757H218L197 754Q145 767
145 804V812Q145 852 202 863H449V1081L445 1114Q461 1163 488 1163ZM192 343L235 339H773L806 343Q855 329 855 292V284Q855 250 812 233L749 237H251L191 233Q145 249 145 284V292Q145 325 192 343Z" />
<glyph unicode="2;" glyph-name="uni00B2" horiz-adv-x="1014" d="M506 1537Q601 1537 672 1451Q709 1395 709 1335Q709 1242 619 1158L422 933H686Q712 933 718 900V898Q713 864 684 864H341Q308 870 308 898V900Q308 916 341 947L615 1260Q638 1293 638
1335Q638 1425 545 1460Q529 1465 509 1465H504Q418 1465 380 1374Q375 1354 373 1328Q361 1303 341 1303H338Q304 1309 304 1335Q304 1441 405 1508Q459 1537 506 1537Z" />
<glyph unicode="3;" glyph-name="uni00B3" horiz-adv-x="1014" d="M503 1543Q583 1543 641 1471Q673 1427 673 1374V1367Q673 1293 609 1236Q702 1169 702 1066Q702 960 602 890Q550 861 499 861H494Q374 861 307 985Q291 1031 291 1067Q291 1092 329 1100Q356
1100 361 1064Q361 987 442 942Q472 931 499 931Q580 931 621 1015Q630 1041 630 1059V1073Q630 1149 546 1191L487 1204Q469 1218 469 1234V1236Q469 1270 517 1270Q552 1270 591 1317Q605 1347 605 1373Q605 1431 548 1462Q527 1473 501 1473Q434 1473 406 1401Q400
1349 393 1349Q381 1335 368 1335Q332 1343 332 1365V1374Q332 1468 426 1523Q462 1541 503 1543Z" />
<glyph unicode="4;" glyph-name="acute" horiz-adv-x="889" d="M491 1389Q537 1389 546 1324Q546 1297 369 1139Q307 1063 279 1063H269Q220 1073 220 1110V1126Q220 1149 353 1268Q459 1389 491 1389Z" />
<glyph unicode="5;" glyph-name="mu" horiz-adv-x="1180" d="M166 994Q214 982 214 956V557Q214 286 371 193Q468 118 590 118Q824 118 941 358Q966 435 966 512V942Q976 994 1012 994Q1061 983 1061 948V61Q1061 32 1012 22H1014Q966 31 966 68V164H927Q771
22 601 22H575Q410 22 214 199V-365Q214 -392 162 -403Q130 -403 119 -348V933Q125 994 166 994Z" />
<glyph unicode="6;" glyph-name="paragraph" horiz-adv-x="1024" d="M378 1410H837Q883 1400 883 1374V1355Q883 1320 834 1312H800V78Q790 25 753 25H751Q702 33 702 68V1312H512V74Q504 25 465 25H463Q414 34 414 72V771H378Q206 771 101 953Q70 1022 70
1094Q70 1280 260 1382Q317 1410 378 1410Z" />
<glyph unicode="7;" glyph-name="middot" horiz-adv-x="508" d="M250 721Q320 721 341 636V618Q341 570 273 540Q266 536 250 536H247Q172 536 156 632Q156 689 227 717Q235 721 250 721Z" />
<glyph unicode="8;" glyph-name="cedilla" horiz-adv-x="1024" d="M523 12Q564 3 564 -22V-91Q668 -160 668 -248Q668 -374 521 -411L475 -408H421L369 -411Q332 -398 332 -377V-365Q340 -325 370 -325H491Q582 -325 582 -248V-245Q582 -184 503 -169Q478
-157 478 -140V-29Q478 3 523 12Z" />
<glyph unicode="9;" glyph-name="uni00B9" horiz-adv-x="1014" d="M535 1564H540Q572 1557 572 1533V922Q566 888 538 888H537Q503 895 503 918V1482Q455 1466 440 1466Q418 1466 410 1498V1507Q410 1533 482 1548L535 1564Z" />
<glyph unicode="a;" glyph-name="ordmasculine" horiz-adv-x="718" d="M370 1543Q477 1543 534 1428Q565 1332 565 1251V1213Q565 1113 524 1012Q465 920 374 920H368Q270 920 213 1025Q177 1117 177 1230V1235Q177 1354 219 1451Q281 1543 370 1543ZM236
1239V1222Q236 1108 277 1031Q317 982 367 982H372Q483 982 501 1153Q506 1180 508 1233Q508 1328 475 1415Q434 1480 372 1480Q296 1480 261 1397Q236 1315 236 1239Z" />
<glyph unicode="b;" glyph-name="guillemotright" horiz-adv-x="944" d="M474 778Q492 778 562 679Q717 505 717 491V480Q529 239 477 196H464Q458 199 455 205V219Q455 235 657 463L665 498Q455 739 455 752Q460 778 474 778ZM232 774Q247 774 335 655Q473
500 473 483Q473 470 274 238Q242 192 230 192H228Q207 196 207 211Q207 227 309 343L427 487Q218 730 211 745V759Q211 770 232 774Z" />
<glyph unicode="c;" glyph-name="onequarter" horiz-adv-x="1470" d="M1160 1417H1172Q1207 1417 1215 1368V1366Q1215 1341 1095 1202Q999 1068 196 34Q181 25 166 25Q120 38 120 65V88Q120 102 260 273Q1072 1334 1135 1409Q1146 1417 1160 1417ZM296 1409Q304
1409 313 1394L310 1344V688L313 657Q307 638 293 638Q282 638 276 649V1359L183 1338H173Q162 1344 162 1354Q162 1381 272 1398Q272 1404 296 1409ZM1130 804Q1142 804 1150 787L1147 754V310H1259Q1272 310 1275 288Q1268 272 1255 272H1147V37Q1140 25 1132
25Q1109 30 1109 46V272H749Q733 275 733 285V295Q1063 720 1113 793Q1120 804 1130 804ZM1068 672L794 310H1109V672H1068Z" />
<glyph unicode="d;" glyph-name="onehalf" horiz-adv-x="1492" d="M1147 1412H1158Q1193 1412 1201 1363V1361Q1201 1336 1081 1198Q986 1065 186 34Q171 25 156 25Q110 38 110 64V87Q110 101 249 273Q1059 1329 1122 1404Q1133 1412 1147 1412ZM285 1404Q293
1404 302 1389L299 1339V685L303 655Q296 635 282 635Q272 635 265 647V1355L173 1333H163Q152 1339 152 1350Q152 1376 262 1393Q262 1399 285 1404ZM1054 790Q1206 790 1270 623L1273 590V550Q1273 463 1125 320L902 62H1256L1267 65Q1285 59 1285 61V45Q1282
29 1272 29H855Q842 29 838 51Q838 54 1013 245Q1232 487 1232 525L1236 552V591Q1199 753 1056 753Q931 753 875 612Q875 561 862 556H851Q841 556 834 574Q834 713 991 780L1054 790Z" />
<glyph unicode="e;" glyph-name="threequarters" horiz-adv-x="1541" d="M343 1413Q450 1413 507 1299Q520 1269 520 1245V1223Q520 1151 431 1065Q554 979 554 864Q554 706 378 648L329 644H323Q175 644 114 820L110 869Q110 874 122 881H134Q150 881 154
818Q206 681 326 681H338Q469 681 514 833L518 866Q518 995 368 1048Q321 1048 321 1069Q326 1088 357 1088Q453 1088 484 1216V1245Q484 1334 364 1376H338Q235 1376 196 1257V1225Q190 1214 183 1214H174Q159 1217 159 1226V1234Q159 1359 301 1409L343 1413ZM1243
1405H1255Q1289 1405 1298 1356V1355Q1298 1330 1178 1192Q1083 1059 287 34Q272 25 258 25Q212 38 212 64V87Q212 101 350 272Q1156 1323 1219 1397Q1230 1405 1243 1405ZM1213 798Q1225 798 1233 781L1230 748V307H1341Q1354 307 1357 286Q1350 270 1338 270H1230V37Q1223
25 1215 25Q1193 29 1193 45V270H835Q819 273 819 283V293Q1147 714 1196 786Q1204 798 1213 798ZM1152 666L880 307H1193V666H1152Z" />
<glyph unicode="f;" glyph-name="questiondown" horiz-adv-x="977" d="M416 1055H427Q487 1055 500 975Q486 902 423 902H419Q356 902 343 977V976Q358 1055 416 1055ZM414 750Q466 741 466 703V696Q466 454 231 316Q123 214 123 74Q123 -107 311 -205Q382
-230 434 -230Q613 -230 709 -55Q732 -16 745 90Q768 117 786 117Q839 104 839 70Q839 -127 644 -267Q536 -327 434 -327Q232 -327 100 -152Q26 -47 26 81Q26 311 261 453Q373 554 373 725Q392 750 414 750Z" />
<glyph unicode="0;" glyph-name="Agrave" horiz-adv-x="1220" d="M452 1761H459Q492 1761 573 1645Q627 1587 627 1569Q618 1516 581 1516H565Q541 1516 444 1652Q405 1685 405 1715Q418 1761 452 1761ZM535 1413Q584 1413 613 1291Q1071 102 1074 77V68Q1074
33 1025 25H1023Q977 25 953 136L775 596H299L86 39Q69 25 54 25H49Q0 34 0 72V72L127 415Q466 1295 493 1387Q516 1413 535 1413ZM518 1175L340 694H727V728L556 1175H518Z" />
<glyph unicode="1;" glyph-name="Aacute" horiz-adv-x="1212" d="M597 1753H598Q647 1743 647 1714V1699Q647 1677 573 1598Q515 1509 484 1509H472Q438 1509 430 1558V1560Q430 1587 541 1711Q568 1753 597 1753ZM533 1407Q581 1407 610 1285Q1066 101 1069
77V68Q1069 33 1020 25H1019Q972 25 948 135L772 594H297L86 39Q69 25 54 25H49Q0 34 0 72V71L126 413Q464 1289 491 1382Q513 1407 533 1407ZM516 1170L338 691H723V725L553 1170H516Z" />
<glyph unicode="2;" glyph-name="Acircumflex" horiz-adv-x="1212" d="M525 1746H555Q578 1746 661 1634Q715 1576 715 1552V1551Q708 1502 668 1502H661Q628 1502 553 1615H523Q443 1502 416 1502H405Q368 1502 358 1554Q358 1576 470 1703Q499 1746 525
1746ZM533 1407Q581 1407 610 1285Q1066 101 1069 77V68Q1069 33 1020 25H1019Q972 25 948 135L772 594H297L86 39Q69 25 54 25H49Q0 34 0 72V71L126 413Q464 1289 491 1382Q513 1407 533 1407ZM516 1170L338 691H723V725L553 1170H516Z" />
<glyph unicode="3;" glyph-name="Atilde" horiz-adv-x="1216" d="M429 1670Q499 1670 607 1600L651 1595L729 1618H730Q779 1610 779 1571V1567Q779 1518 677 1502L641 1498Q571 1498 470 1569L429 1574L347 1552Q298 1561 298 1597V1605Q298 1655 416 1667L429
1670ZM533 1407Q581 1407 610 1285Q1066 101 1069 77V68Q1069 33 1020 25H1019Q972 25 948 135L772 594H297L86 39Q69 25 54 25H49Q0 34 0 72V71L126 413Q464 1289 491 1382Q513 1407 533 1407ZM516 1170L338 691H723V725L553 1170H516Z" />
<glyph unicode="4;" glyph-name="Adieresis" horiz-adv-x="1225" d="M389 1659H394Q440 1649 440 1620V1609Q440 1570 389 1562Q343 1572 343 1609V1620Q343 1649 389 1659ZM672 1659H687Q718 1659 726 1603Q726 1574 675 1563Q629 1571 629 1605V1620Q641
1659 672 1659ZM533 1407Q581 1407 610 1285Q1066 101 1069 77V68Q1069 33 1020 25H1019Q972 25 948 135L772 594H297L86 39Q69 25 54 25H49Q0 34 0 72V71L126 413Q464 1289 491 1382Q513 1407 533 1407ZM516 1170L338 691H723V725L553 1170H516Z" />
<glyph unicode="5;" glyph-name="Aring" horiz-adv-x="1219" d="M531 1807H545Q648 1807 694 1679L698 1646V1636Q698 1535 576 1486L536 1479Q440 1479 386 1579Q370 1615 370 1647Q370 1757 499 1803L531 1807ZM437 1643Q454 1547 536 1547Q631 1563 631
1640V1653Q616 1740 542 1740H530Q452 1740 437 1643ZM534 1411Q583 1411 612 1289Q1069 101 1072 77V68Q1072 33 1023 25H1021Q975 25 951 135L774 595H298L86 39Q69 25 54 25H49Q0 34 0 72V72L126 414Q465 1293 492 1385Q515 1411 534 1411ZM517 1173L339 693H725V727L555
1173H517Z" />
<glyph unicode="6;" glyph-name="AE" horiz-adv-x="1565" d="M755 1410H1350Q1376 1410 1388 1362Q1379 1313 1338 1313H813V695H1225Q1272 685 1272 659V640Q1272 605 1223 597H813V123H1342Q1379 123 1389 70Q1389 36 1335 25H763Q726 25 716 78V597H402Q373
562 226 288L84 39Q68 25 51 25H47Q9 25 0 82Q0 95 239 514L730 1396Q747 1410 755 1410ZM451 695H716V1168L451 695Z" />
<glyph unicode="7;" glyph-name="Ccedilla" horiz-adv-x="1399" d="M688 1407Q903 1407 1074 1280Q1086 1265 1086 1252Q1077 1201 1037 1201Q1026 1201 913 1262Q788 1308 688 1308Q412 1308 212 1056Q111 888 111 727Q111 405 413 216Q547 146 681 146H692Q861
146 1025 248L1036 250H1039Q1086 242 1086 205V201Q1086 127 814 59L726 50V-60Q838 -134 838 -229Q838 -365 679 -404L630 -400H573L517 -404Q476 -390 476 -366V-353Q485 -309 518 -309H648Q743 -309 743 -229V-225Q743 -162 659 -146Q632 -133 632 -114V50Q470
65 306 166Q13 393 13 727Q13 1080 336 1303Q507 1407 688 1407Z" />
<glyph unicode="8;" glyph-name="Egrave" horiz-adv-x="1039" d="M330 1804H338Q370 1804 451 1688Q505 1630 505 1612Q496 1559 459 1559H444Q419 1559 322 1695Q283 1728 283 1757Q297 1804 330 1804ZM72 1405L63 1407H809L824 1411Q864 1411 872 1354Q862
1310 814 1310H97V750H577L630 753Q660 753 672 700Q672 670 631 652L562 656H97V122H833Q864 122 871 70Q858 25 829 25H49Q0 34 0 72V1358Q7 1407 72 1407V1405Z" />
<glyph unicode="9;" glyph-name="Eacute" horiz-adv-x="1014" d="M451 1804H453Q505 1794 505 1753Q505 1731 420 1637Q366 1559 345 1559H323Q292 1559 283 1616Q283 1632 396 1761Q425 1804 451 1804ZM72 1405L63 1407H809L824 1411Q864 1411 872 1354Q862
1310 814 1310H97V750H577L630 753Q660 753 672 700Q672 670 631 652L562 656H97V122H833Q864 122 871 70Q858 25 829 25H49Q0 34 0 72V1358Q7 1407 72 1407V1405Z" />
<glyph unicode="a;" glyph-name="Ecircumflex" horiz-adv-x="1014" d="M439 1762H455Q487 1762 552 1669Q623 1591 623 1576V1564Q614 1518 587 1518H561Q541 1518 443 1649Q353 1518 330 1518H304Q277 1518 268 1564V1576Q268 1598 415 1757L439 1762ZM72
1405L63 1407H809L824 1411Q864 1411 872 1354Q862 1310 814 1310H97V750H577L630 753Q660 753 672 700Q672 670 631 652L562 656H97V122H833Q864 122 871 70Q858 25 829 25H49Q0 34 0 72V1358Q7 1407 72 1407V1405Z" />
<glyph unicode="b;" glyph-name="Edieresis" horiz-adv-x="1027" d="M284 1679H289Q335 1669 335 1640V1629Q335 1590 285 1582Q238 1592 238 1629V1640Q238 1669 284 1679ZM568 1679H583Q615 1679 623 1623Q623 1594 571 1582Q525 1590 525 1625V1640Q537
1679 568 1679ZM72 1405L63 1407H809L824 1411Q864 1411 872 1354Q862 1310 814 1310H97V750H577L630 753Q660 753 672 700Q672 670 631 652L562 656H97V122H833Q864 122 871 70Q858 25 829 25H49Q0 34 0 72V1358Q7 1407 72 1407V1405Z" />
<glyph unicode="c;" glyph-name="Igrave" horiz-adv-x="657" d="M196 1793Q225 1793 296 1693Q361 1622 361 1598Q351 1546 311 1546Q279 1546 225 1626Q144 1717 144 1732V1754Q144 1783 196 1793ZM158 1405L172 1402H318L330 1405Q380 1394 380 1357Q371
1305 333 1305H293V122H341Q370 122 380 72V74Q371 25 333 25H159Q110 34 110 72V72Q120 122 149 122H197V1305H157Q116 1305 110 1360V1363Q110 1390 158 1405Z" />
<glyph unicode="d;" glyph-name="Iacute" horiz-adv-x="657" d="M349 1803H351Q403 1793 403 1752Q403 1730 318 1636Q264 1558 243 1558H221Q190 1558 182 1615Q182 1631 294 1760Q323 1803 349 1803ZM188 1409L203 1406H348L361 1409Q411 1399 411 1362Q402
1309 364 1309H324V122H372Q401 122 411 73V74Q402 25 364 25H189Q140 34 140 72V73Q150 122 179 122H227V1309H187Q146 1309 140 1364V1367Q140 1395 188 1409Z" />
<glyph unicode="e;" glyph-name="Icircumflex" horiz-adv-x="657" d="M260 1758H290Q325 1758 407 1639Q458 1586 458 1566Q449 1513 411 1513H404Q370 1513 309 1607L269 1639Q187 1513 154 1513H149Q100 1521 100 1560V1564Q100 1590 208 1710Q241 1758
260 1758ZM193 1410L208 1407H354L366 1410Q416 1399 416 1362Q407 1309 370 1309H330V122H377Q406 122 416 74V74Q408 25 370 25H194Q145 34 145 72V73Q155 122 185 122H232V1309H192Q151 1309 145 1365V1368Q145 1395 193 1410Z" />
<glyph unicode="f;" glyph-name="Idieresis" horiz-adv-x="657" d="M119 1658H131Q177 1649 177 1623V1604Q177 1570 130 1561Q80 1571 80 1609Q91 1658 119 1658ZM412 1658H417Q463 1648 463 1619V1608Q463 1569 413 1561Q366 1571 366 1608V1619Q366 1648
412 1658ZM188 1405L203 1402H348L361 1405Q410 1395 410 1357Q401 1305 364 1305H324V122H371Q400 122 410 73V74Q402 25 364 25H189Q140 34 140 72V72Q150 122 179 122H227V1305H187Q146 1305 140 1360V1363Q140 1390 188 1405Z" />
<glyph unicode="&#xd0;" glyph-name="Eth" horiz-adv-x="1275" d="M447 1405Q765 1405 994 1126Q1132 937 1132 711Q1132 351 794 119Q621 25 449 25H197Q163 25 151 71V680H46Q0 690 0 723V738Q0 767 50 777H151V1352Q161 1402 190 1402H413L447 1405ZM247 1309V777H553Q601
768 601 734V725Q592 680 558 680H247V122H427Q805 122 979 467Q1035 585 1035 715Q1035 1035 738 1229Q611 1309 344 1309H247Z" />
<glyph unicode="&#xd1;" glyph-name="Ntilde" horiz-adv-x="1288" d="M432 1676Q500 1676 609 1605L655 1600L727 1623H733Q782 1616 782 1576V1572Q782 1523 679 1507L643 1503Q573 1503 472 1574L430 1578L348 1557Q299 1566 299 1603V1610Q299 1660 417 1672L432
1676ZM39 1407H54Q85 1407 113 1351L961 262H1002V1362Q1011 1407 1045 1407H1056Q1091 1407 1099 1359V74Q1090 25 1052 25H1048Q1011 25 952 120L97 1210V68Q97 33 49 25H47Q12 25 0 71V1358Q10 1407 39 1407Z" />
<glyph unicode="&#xd2;" glyph-name="Ograve" horiz-adv-x="1519" d="M621 1796H643Q664 1796 726 1711Q802 1626 802 1605Q792 1553 752 1553H749Q716 1553 647 1657Q582 1721 582 1747Q593 1796 621 1796ZM689 1402Q1037 1402 1272 1079Q1377 896 1377 710Q1377
366 1065 137Q888 25 696 25H681Q327 25 101 356Q0 522 0 717Q0 1046 290 1272Q479 1402 689 1402ZM96 706Q96 421 347 228Q504 121 681 121H700Q978 121 1170 368Q1281 527 1281 714Q1281 1036 987 1223Q843 1306 689 1306Q395 1306 203 1051Q96 898 96 706Z"
/>
<glyph unicode="&#xd3;" glyph-name="Oacute" horiz-adv-x="1532" d="M743 1801H755Q805 1791 805 1755Q805 1726 685 1596Q666 1558 630 1558Q594 1558 584 1610Q584 1635 688 1747Q722 1801 743 1801ZM691 1406Q1040 1406 1276 1082Q1381 899 1381 712Q1381
367 1068 138Q891 25 698 25H683Q328 25 101 357Q0 524 0 719Q0 1049 291 1275Q480 1406 691 1406ZM97 708Q97 422 348 229Q505 122 683 122H702Q981 122 1174 369Q1284 528 1284 716Q1284 1038 990 1226Q845 1309 691 1309Q396 1309 204 1054Q97 900 97 708Z"
/>
<glyph unicode="&#xd4;" glyph-name="Ocircumflex" horiz-adv-x="1523" d="M673 1778H704Q726 1778 808 1666Q863 1608 863 1585V1583Q855 1535 816 1535H809Q776 1535 702 1647H672Q592 1535 565 1535H553Q517 1535 507 1587Q507 1609 618 1735Q648 1778 673
1778ZM689 1402Q1037 1402 1272 1079Q1377 896 1377 710Q1377 366 1065 137Q888 25 696 25H681Q327 25 101 356Q0 522 0 717Q0 1046 290 1272Q479 1402 689 1402ZM96 706Q96 421 347 228Q504 121 681 121H700Q978 121 1170 368Q1281 527 1281 714Q1281 1036 987
1223Q843 1306 689 1306Q395 1306 203 1051Q96 898 96 706Z" />
<glyph unicode="&#xd5;" glyph-name="Otilde" horiz-adv-x="1528" d="M565 1747H583Q647 1747 739 1686L776 1676H801L874 1698Q923 1689 923 1649Q923 1595 803 1580H779Q716 1580 623 1642L586 1651H562L490 1632H489Q443 1641 443 1675V1686Q443 1723 508 1737Q535
1747 565 1747ZM689 1402Q1037 1402 1272 1079Q1377 896 1377 710Q1377 366 1065 137Q888 25 696 25H681Q327 25 101 356Q0 522 0 717Q0 1046 290 1272Q479 1402 689 1402ZM96 706Q96 421 347 228Q504 121 681 121H700Q978 121 1170 368Q1281 527 1281 714Q1281
1036 987 1223Q843 1306 689 1306Q395 1306 203 1051Q96 898 96 706Z" />
<glyph unicode="&#xd6;" glyph-name="Odieresis" horiz-adv-x="1540" d="M485 1681Q514 1681 525 1631Q514 1580 483 1580Q429 1592 429 1619V1642Q429 1673 485 1681ZM911 1681Q940 1681 951 1631Q940 1580 908 1580Q855 1592 855 1619V1642Q855 1673 911 1681ZM691
1406Q1040 1406 1276 1082Q1381 899 1381 712Q1381 367 1068 138Q891 25 698 25H683Q328 25 101 357Q0 524 0 719Q0 1049 291 1275Q480 1406 691 1406ZM97 708Q97 422 348 229Q505 122 683 122H702Q981 122 1174 369Q1284 528 1284 716Q1284 1038 990 1226Q845
1309 691 1309Q396 1309 204 1054Q97 900 97 708Z" />
<glyph unicode="&#xd7;" glyph-name="multiply" horiz-adv-x="1014" d="M283 913H298Q334 913 433 795L495 741Q664 913 676 913H715Q755 913 771 844Q771 800 616 664L603 651V625Q766 477 766 451L770 435Q754 364 700 364Q661 364 560 482L492 542Q339 369
298 369H278Q222 386 222 420V444Q222 479 315 556L395 642Q222 812 222 823V850Q235 913 283 913Z" />
<glyph unicode="&#xd8;" glyph-name="Oslash" horiz-adv-x="1561" d="M688 1401Q946 1401 1181 1194Q1340 1356 1360 1356H1365Q1414 1344 1414 1310V1303Q1414 1273 1317 1198L1242 1122Q1376 917 1376 709Q1376 366 1065 137Q888 25 696 25H681Q457 25 253 179H232Q78
29 66 29L47 25H46Q8 25 0 81Q0 103 120 203Q124 213 176 250Q0 474 0 717Q0 1045 290 1271Q479 1401 688 1401ZM96 706Q96 502 247 321L1096 1119V1146Q901 1305 688 1305Q395 1305 203 1051Q96 897 96 706ZM310 252Q498 121 681 121H699Q978 121 1170 368Q1280
526 1280 713Q1280 872 1184 1042H1155L310 252Z" />
<glyph unicode="&#xd9;" glyph-name="Ugrave" horiz-adv-x="1103" d="M422 1794Q454 1794 540 1672Q587 1626 587 1601V1593Q587 1556 534 1547Q504 1547 423 1662Q369 1718 369 1740V1748Q369 1783 422 1794ZM39 1403H51Q97 1394 97 1367V565Q97 292 255 197Q352
122 476 122Q712 122 830 364Q855 439 855 520V1354Q864 1403 898 1403H907Q952 1394 952 1360V482Q952 270 747 110Q618 25 487 25H461Q239 25 75 244Q0 361 0 535V1353Q10 1403 39 1403Z" />
<glyph unicode="&#xda;" glyph-name="Uacute" horiz-adv-x="1107" d="M537 1794Q587 1784 587 1748V1740Q587 1715 497 1620Q451 1547 422 1547Q369 1558 369 1593V1601Q369 1627 458 1722Q504 1794 537 1794ZM39 1403H51Q97 1394 97 1367V565Q97 292 255 197Q352
122 476 122Q712 122 830 364Q855 439 855 520V1354Q864 1403 898 1403H907Q952 1394 952 1360V482Q952 270 747 110Q618 25 487 25H461Q239 25 75 244Q0 361 0 535V1353Q10 1403 39 1403Z" />
<glyph unicode="&#xdb;" glyph-name="Ucircumflex" horiz-adv-x="1124" d="M490 1771H497Q533 1771 614 1656Q669 1599 669 1576Q657 1526 629 1526H610Q582 1526 521 1617Q520 1617 518 1621L503 1636H477Q392 1534 391 1534L368 1526H353Q319 1526 310 1575V1577Q310
1605 442 1749Q442 1766 490 1771ZM39 1408H51Q97 1399 97 1373V567Q97 293 256 198Q354 122 478 122Q715 122 834 365Q859 441 859 522V1360Q867 1408 902 1408H911Q956 1399 956 1365V484Q956 271 750 111Q621 25 489 25H463Q240 25 75 245Q0 362 0 537V1359Q10
1408 39 1408Z" />
<glyph unicode="&#xdc;" glyph-name="Udieresis" horiz-adv-x="1128" d="M330 1666H335Q381 1656 381 1626V1615Q381 1576 331 1568Q284 1578 284 1615V1626Q284 1656 330 1666ZM614 1666H629Q660 1666 669 1609Q669 1580 617 1568Q571 1577 571 1611V1626Q583
1666 614 1666ZM39 1408H51Q97 1399 97 1373V567Q97 293 256 198Q354 122 478 122Q715 122 834 365Q859 441 859 522V1360Q867 1408 902 1408H911Q956 1399 956 1365V484Q956 271 750 111Q621 25 489 25H463Q240 25 75 245Q0 362 0 537V1359Q10 1408 39 1408Z"
/>
<glyph unicode="&#xdd;" glyph-name="Yacute" horiz-adv-x="1107" d="M573 1772H574Q627 1762 627 1722Q627 1699 541 1605Q487 1527 467 1527H444Q413 1527 405 1584Q405 1600 516 1729Q547 1772 573 1772ZM39 1408H55Q87 1408 111 1349L465 820H496Q873 1389
884 1398Q898 1408 904 1408H927Q953 1408 966 1358Q966 1337 841 1166L530 702V84Q523 25 491 25H475Q444 25 432 65V682Q432 704 268 947L2 1347L0 1360Q11 1408 39 1408Z" />
<glyph unicode="&#xde;" glyph-name="Thorn" horiz-adv-x="1100" d="M59 1411H72Q118 1402 118 1375V1070H533Q812 1070 903 829Q921 773 921 727V709Q921 526 741 412Q648 366 584 366L558 370H118V68Q118 33 69 25H67Q30 25 20 78V1352Q26 1411 59 1411ZM118
972V468H578Q759 468 819 673L823 719Q823 892 639 960Q591 972 522 972H118Z" />
<glyph unicode="&#xdf;" glyph-name="germandbls" horiz-adv-x="1061" d="M354 1400H395Q560 1400 678 1243Q741 1148 741 1040Q741 957 681 833V789Q681 742 810 598Q894 495 894 378V363Q894 159 684 53Q621 25 552 25H549Q378 25 273 166L271 182Q282 229 317
229H324Q347 229 398 172Q477 121 552 121Q724 121 790 308L798 365V374Q798 480 683 601Q581 706 581 804Q581 856 632 970Q641 992 641 1029V1062Q641 1196 493 1279Q443 1304 377 1304Q193 1304 123 1101L116 989V75Q116 41 68 32H66Q30 32 20 84V1021Q20 1287
270 1383Q318 1400 354 1400Z" />
<glyph unicode="&#xe0;" glyph-name="agrave" horiz-adv-x="1147" d="M475 1360H496Q516 1360 623 1220Q646 1195 646 1178V1170Q646 1135 596 1126Q567 1126 516 1204Q437 1292 437 1305V1320Q437 1349 475 1360ZM504 974Q773 974 930 710Q978 604 978 489V66Q978
33 932 25H930Q900 25 886 60V58L889 149V211Q694 25 518 25H489Q248 25 88 268Q29 384 29 503Q29 768 289 922Q400 974 504 974ZM121 507V496Q121 264 355 145Q429 117 489 117H518Q713 117 839 311Q886 404 886 489V503Q886 728 664 846Q586 882 504 882H500Q264
882 145 636Q121 560 121 507Z" />
<glyph unicode="&#xe1;" glyph-name="aacute" horiz-adv-x="1114" d="M566 1364Q617 1352 617 1320V1313Q617 1292 542 1207Q489 1126 449 1126H445Q419 1126 408 1173V1178Q408 1201 515 1322Q547 1364 566 1364ZM475 974Q744 974 901 710Q949 604 949 489V66Q949
33 903 25H901Q871 25 857 60V58L860 149V211Q665 25 489 25H460Q219 25 59 268Q0 384 0 503Q0 768 260 922Q371 974 475 974ZM92 507V496Q92 264 326 145Q400 117 460 117H489Q684 117 810 311Q857 404 857 489V503Q857 728 635 846Q557 882 475 882H471Q235 882
116 636Q92 560 92 507Z" />
<glyph unicode="&#xe2;" glyph-name="acircumflex" horiz-adv-x="1140" d="M460 1367L463 1364H485L489 1367Q519 1367 585 1270Q650 1201 650 1178Q641 1128 602 1128Q567 1128 504 1223L494 1238H459Q389 1128 354 1128Q304 1138 304 1176Q304 1203 402 1308Q440
1367 460 1367ZM477 979Q748 979 906 714Q954 607 954 491V66Q954 33 907 25H906Q875 25 861 60V58L865 149V212Q668 25 492 25H462Q220 25 59 269Q0 386 0 506Q0 772 262 927Q373 979 477 979ZM93 509V498Q93 265 328 146Q402 118 462 118H492Q688 118 814 314Q861
406 861 491V506Q861 731 638 850Q560 886 477 886H473Q236 886 117 639Q93 563 93 509Z" />
<glyph unicode="&#xe3;" glyph-name="atilde" horiz-adv-x="1122" d="M383 1329H402Q464 1329 554 1268L590 1259H615L686 1280Q734 1271 734 1232Q734 1180 617 1165H593Q532 1165 441 1226L405 1235H380L310 1217H308Q265 1226 265 1258V1269Q265 1304 328 1319Q355
1329 383 1329ZM479 983Q751 983 909 716Q958 609 958 493V66Q958 33 911 25H909Q879 25 865 60V59L868 151V214Q671 25 494 25H464Q221 25 60 271Q0 388 0 508Q0 775 263 931Q375 983 479 983ZM93 511V500Q93 266 329 146Q405 118 464 118H494Q691 118 817 314Q865
408 865 493V508Q865 734 641 853Q563 890 479 890H475Q237 890 118 642Q93 565 93 511Z" />
<glyph unicode="&#xe4;" glyph-name="adieresis" horiz-adv-x="1136" d="M333 1221H338Q382 1211 382 1184V1173Q382 1136 334 1128Q289 1137 289 1173V1184Q289 1211 333 1221ZM609 1221H624Q653 1221 661 1167Q661 1140 612 1128Q568 1136 568 1169V1183Q580
1221 609 1221ZM477 979Q748 979 906 714Q954 607 954 491V66Q954 33 907 25H906Q875 25 861 60V58L865 149V212Q668 25 492 25H462Q220 25 59 269Q0 386 0 506Q0 772 262 927Q373 979 477 979ZM93 509V498Q93 265 328 146Q402 118 462 118H492Q688 118 814 314Q861
406 861 491V506Q861 731 638 850Q560 886 477 886H473Q236 886 117 639Q93 563 93 509Z" />
<glyph unicode="&#xe5;" glyph-name="aring" horiz-adv-x="1131" d="M493 1422Q582 1422 635 1326Q650 1293 650 1260Q650 1155 526 1110L494 1106H481Q381 1106 337 1230L333 1261V1271Q333 1377 464 1419L493 1422ZM397 1268V1249Q420 1170 481 1170H495Q573
1170 586 1264Q570 1359 490 1359Q397 1343 397 1268ZM477 979Q748 979 906 714Q954 607 954 491V66Q954 33 907 25H906Q875 25 861 60V58L865 149V212Q668 25 492 25H462Q220 25 59 269Q0 386 0 506Q0 772 262 927Q373 979 477 979ZM93 509V498Q93 265 328 146Q402
118 462 118H492Q688 118 814 314Q861 406 861 491V506Q861 731 638 850Q560 886 477 886H473Q236 886 117 639Q93 563 93 509Z" />
<glyph unicode="&#xe6;" glyph-name="ae" horiz-adv-x="1961" d="M475 979Q725 979 893 734H924Q1017 893 1194 954Q1274 975 1337 975Q1602 975 1757 718Q1808 611 1808 518V473Q1800 427 1764 427H972V394Q1013 261 1122 187Q1224 121 1333 121Q1427 121 1538
177L1548 179Q1597 167 1597 131Q1597 60 1378 29L1328 25Q1147 25 950 207V69Q950 30 898 25H895Q874 25 858 62L862 145V215Q666 29 490 29H461Q219 29 59 272Q0 388 0 507Q0 773 261 927Q372 979 475 979ZM92 511V500Q92 268 326 149Q402 121 461 121H490Q685
121 811 316Q858 408 858 493V507Q858 732 636 851Q558 887 475 887H472Q235 887 116 641Q92 564 92 511ZM961 519H1709V548Q1709 654 1584 786Q1464 879 1333 879Q1133 879 1009 692Q961 603 961 519Z" />
<glyph unicode="&#xe7;" glyph-name="ccedilla" horiz-adv-x="986" d="M482 971Q665 971 811 835Q817 825 817 814V813Q809 767 773 767H769Q751 767 666 832Q578 876 493 876H471Q244 876 128 639Q101 558 101 495Q101 264 338 144Q410 117 489 117Q624 117 749
221L769 226H777Q809 226 817 180V178Q817 121 603 39L508 26V-57Q617 -129 617 -222Q617 -355 462 -393L414 -389H357L303 -393Q263 -379 263 -356V-344Q272 -301 304 -301H431Q525 -301 525 -222V-218Q525 -157 443 -140Q416 -127 416 -109V29Q310 44 184 129Q9
286 9 498Q9 729 214 885Q344 971 482 971Z" />
<glyph unicode="&#xe8;" glyph-name="egrave" horiz-adv-x="1127" d="M444 1356H466Q486 1356 594 1215Q617 1190 617 1173V1165Q617 1129 567 1121Q537 1121 486 1199Q407 1287 407 1301V1315Q407 1345 444 1356ZM473 979Q749 979 902 717Q954 615 954 495V478Q945
428 909 428H102Q159 240 312 157Q402 122 481 122Q571 122 681 177H695Q738 168 738 136V125Q738 56 497 25H473Q217 25 63 266Q0 379 0 502Q0 764 247 920Q368 979 473 979ZM97 521H854Q854 629 760 757Q630 879 503 879H462Q273 879 152 695Q109 621 97 521Z"
/>
<glyph unicode="&#xe9;" glyph-name="eacute" horiz-adv-x="1118" d="M566 1360Q617 1348 617 1315V1308Q617 1288 541 1202Q488 1121 448 1121H444Q417 1121 407 1168V1173Q407 1197 514 1318Q546 1360 566 1360ZM473 979Q749 979 902 717Q954 615 954 495V478Q945
428 909 428H102Q159 240 312 157Q402 122 481 122Q571 122 681 177H695Q738 168 738 136V125Q738 56 497 25H473Q217 25 63 266Q0 379 0 502Q0 764 247 920Q368 979 473 979ZM97 521H854Q854 629 760 757Q630 879 503 879H462Q273 879 152 695Q109 621 97 521Z"
/>
<glyph unicode="&#xea;" glyph-name="ecircumflex" horiz-adv-x="1144" d="M460 1367L463 1364H485L489 1367Q519 1367 585 1270Q650 1201 650 1178Q641 1128 602 1128Q567 1128 504 1223L494 1238H459Q389 1128 354 1128Q304 1138 304 1176Q304 1203 402 1308Q440
1367 460 1367ZM473 979Q749 979 902 717Q954 615 954 495V478Q945 428 909 428H102Q159 240 312 157Q402 122 481 122Q571 122 681 177H695Q738 168 738 136V125Q738 56 497 25H473Q217 25 63 266Q0 379 0 502Q0 764 247 920Q368 979 473 979ZM97 521H854Q854
629 760 757Q630 879 503 879H462Q273 879 152 695Q109 621 97 521Z" />
<glyph unicode="&#xeb;" glyph-name="edieresis" horiz-adv-x="1122" d="M333 1218H338Q381 1208 381 1181V1170Q381 1133 333 1125Q289 1134 289 1170V1181Q289 1208 333 1218ZM607 1218H622Q651 1218 659 1164Q659 1137 610 1126Q567 1133 567 1166V1181Q578
1218 607 1218ZM472 977Q747 977 900 716Q952 614 952 494V477Q943 427 907 427H102Q159 239 311 156Q401 121 480 121Q570 121 679 176H693Q736 167 736 135V124Q736 56 496 25H472Q217 25 62 265Q0 378 0 501Q0 762 247 918Q367 977 472 977ZM97 520H852Q852
628 758 755Q629 877 501 877H461Q273 877 151 693Q109 620 97 520Z" />
<glyph unicode="&#xec;" glyph-name="igrave" horiz-adv-x="514" d="M118 1319H139Q159 1319 267 1178Q290 1152 290 1135V1128Q290 1092 240 1083Q210 1083 159 1161Q80 1250 80 1263V1278Q80 1307 118 1319ZM209 978Q257 966 257 941V66Q257 33 210 25H209Q174
25 164 75V918Q170 978 209 978Z" />
<glyph unicode="&#xed;" glyph-name="iacute" horiz-adv-x="514" d="M279 1328Q331 1316 331 1283V1276Q331 1255 255 1169Q201 1087 161 1087H157Q130 1087 120 1135V1140Q120 1163 228 1285Q260 1328 279 1328ZM210 982Q257 970 257 945V66Q257 33 211 25H209Q174
25 164 76V922Q170 982 210 982Z" />
<glyph unicode="&#xee;" glyph-name="icircumflex" horiz-adv-x="514" d="M189 1323L193 1320H215L218 1323Q247 1323 314 1225Q379 1155 379 1133Q370 1082 330 1082Q296 1082 231 1181L216 1192H187Q116 1082 81 1082Q30 1092 30 1131Q30 1157 128 1263Q167
1323 189 1323ZM205 987Q253 975 253 949V67Q253 33 206 25H205Q169 25 159 76V926Q165 987 205 987Z" />
<glyph unicode="&#xef;" glyph-name="idieresis" horiz-adv-x="514" d="M64 1248H69Q113 1238 113 1210V1199Q113 1162 65 1154Q20 1163 20 1199V1210Q20 1238 64 1248ZM341 1248H355Q385 1248 393 1193Q393 1166 343 1154Q300 1162 300 1195V1210Q312 1248 341
1248ZM209 983Q257 971 257 945V66Q257 33 210 25H208Q173 25 163 76V922Q169 983 209 983Z" />
<glyph unicode="&#xf0;" glyph-name="eth" horiz-adv-x="1118" d="M723 1378H727Q771 1369 771 1337V1323Q771 1292 602 1206V1180L885 745Q954 628 954 502Q954 234 700 81Q590 25 488 25H459Q267 25 101 207Q0 349 0 502Q0 734 206 892Q338 979 476 979L605
965V1004L510 1148Q364 1055 345 1055H330Q302 1055 293 1102V1103Q293 1137 390 1184L461 1227Q410 1304 410 1315V1330Q421 1367 451 1367H466Q488 1367 542 1278Q706 1378 723 1378ZM97 513V495Q97 280 304 161Q380 122 466 122H488Q711 122 830 353Q857 427
857 495V513Q857 664 720 796Q612 882 473 882Q229 882 117 628Q97 565 97 513Z" />
<glyph unicode="&#xf1;" glyph-name="ntilde" horiz-adv-x="1108" d="M374 1336H392Q454 1336 542 1276L579 1266H605L675 1287Q722 1278 722 1240Q722 1188 606 1174H582Q521 1174 431 1234L395 1243H371L301 1225H299Q256 1234 256 1266V1277Q256 1312 319 1326Q346
1336 374 1336ZM45 977Q93 965 93 940V804Q287 977 465 977Q660 977 812 814Q923 677 923 527V62Q923 34 876 25H877Q830 33 830 70V479Q830 771 575 865Q513 881 465 881H454Q240 881 125 662Q93 593 93 450V66Q93 33 46 25H45Q10 25 0 75V917Q6 977 45 977Z"
/>
<glyph unicode="&#xf2;" glyph-name="ograve" horiz-adv-x="1118" d="M448 1367H470Q489 1367 597 1226Q621 1201 621 1184V1176Q621 1140 570 1132Q541 1132 490 1210Q410 1298 410 1312V1326Q410 1355 448 1367ZM477 979Q661 979 811 839Q954 690 954 502Q954
234 700 81Q590 25 488 25H459Q267 25 101 207Q0 349 0 502Q0 734 206 892Q338 979 477 979ZM97 513V495Q97 280 304 161Q380 122 466 122H488Q711 122 830 353Q857 427 857 495V513Q857 692 694 815Q596 882 473 882Q229 882 117 628Q97 565 97 513Z" />
<glyph unicode="&#xf3;" glyph-name="oacute" horiz-adv-x="1118" d="M566 1364Q617 1352 617 1320V1313Q617 1292 542 1207Q489 1126 449 1126H445Q419 1126 408 1173V1178Q408 1201 515 1322Q547 1364 566 1364ZM475 974Q657 974 807 835Q949 686 949 500Q949
233 696 80Q587 25 485 25H456Q266 25 101 206Q0 348 0 500Q0 731 205 888Q336 974 475 974ZM96 510V492Q96 279 302 160Q378 121 464 121H485Q708 121 826 351Q853 425 853 492V510Q853 690 690 811Q593 878 471 878Q228 878 116 625Q96 562 96 510Z" />
<glyph unicode="&#xf4;" glyph-name="ocircumflex" horiz-adv-x="1118" d="M459 1360L463 1357H485L488 1360Q516 1360 582 1264Q646 1195 646 1172Q638 1122 598 1122Q565 1122 502 1219L488 1232H457Q387 1122 354 1122Q303 1132 303 1170Q303 1197 400 1301Q437
1360 459 1360ZM475 974Q657 974 807 835Q949 686 949 500Q949 233 696 80Q587 25 485 25H456Q266 25 101 206Q0 348 0 500Q0 731 205 888Q336 974 475 974ZM96 510V492Q96 279 302 160Q378 121 464 121H485Q708 121 826 351Q853 425 853 492V510Q853 690 690 811Q593
878 471 878Q228 878 116 625Q96 562 96 510Z" />
<glyph unicode="&#xf5;" glyph-name="otilde" horiz-adv-x="1118" d="M382 1323H400Q462 1323 551 1263L588 1254H613L683 1275Q730 1266 730 1228Q730 1175 614 1161H591Q530 1161 440 1221L403 1231H379L309 1212H307Q264 1221 264 1253V1264Q264 1299 326 1313Q353
1323 382 1323ZM477 979Q661 979 811 839Q954 690 954 502Q954 234 700 81Q590 25 488 25H459Q267 25 101 207Q0 349 0 502Q0 734 206 892Q338 979 477 979ZM97 513V495Q97 280 304 161Q380 122 466 122H488Q711 122 830 353Q857 427 857 495V513Q857 692 694 815Q596
882 473 882Q229 882 117 628Q97 565 97 513Z" />
<glyph unicode="&#xf6;" glyph-name="odieresis" horiz-adv-x="1114" d="M332 1215H337Q380 1205 380 1178V1167Q380 1130 332 1122Q288 1131 288 1167V1178Q288 1205 332 1215ZM606 1215H620Q649 1215 657 1161Q657 1134 608 1123Q565 1130 565 1163V1177Q577
1215 606 1215ZM475 974Q657 974 807 835Q949 686 949 500Q949 233 696 80Q587 25 485 25H456Q266 25 101 206Q0 348 0 500Q0 731 205 888Q336 974 475 974ZM96 510V492Q96 279 302 160Q378 121 464 121H485Q708 121 826 351Q853 425 853 492V510Q853 690 690 811Q593
878 471 878Q228 878 116 625Q96 562 96 510Z" />
<glyph unicode="&#xf7;" glyph-name="divide" horiz-adv-x="1014" d="M497 1107H501Q573 1107 588 1030V1019Q571 941 513 941H506Q422 950 422 1024V1029Q441 1107 497 1107ZM203 775H807Q860 765 860 724V712Q860 682 810 669H199Q150 679 150 716V732Q150 764
203 775ZM504 503H509Q575 503 588 414V412Q588 351 505 334Q422 351 422 408V428Q422 484 504 503Z" />
<glyph unicode="&#xf8;" glyph-name="oslash" horiz-adv-x="1169" d="M938 987H942Q978 987 986 933Q986 917 875 810Q997 661 997 499Q997 232 744 80Q636 25 534 25H505Q376 25 216 136Q128 29 101 29H87Q58 29 50 82Q50 99 156 201Q50 347 50 499Q50 729 255
886Q385 972 524 972Q662 972 812 873Q905 987 938 987ZM146 509V491Q146 395 206 284H236L740 805Q638 876 520 876Q277 876 166 624Q146 561 146 509ZM809 744L283 199Q410 121 513 121H534Q756 121 874 350Q901 424 901 491V509Q901 626 809 744Z" />
<glyph unicode="&#xf9;" glyph-name="ugrave" horiz-adv-x="1109" d="M447 1364H468Q488 1364 596 1223Q619 1198 619 1181V1173Q619 1137 569 1129Q539 1129 488 1207Q409 1295 409 1309V1323Q409 1352 447 1364ZM45 977Q93 965 93 939V548Q93 283 246 191Q342
118 461 118Q691 118 806 353Q830 429 830 504V926Q840 977 875 977Q922 965 922 932V62Q922 34 875 25H876Q830 33 830 69V164H791Q638 25 472 25H447Q232 25 73 237Q0 350 0 519V916Q6 977 45 977Z" />
<glyph unicode="&#xfa;" glyph-name="uacute" horiz-adv-x="1105" d="M571 1374Q622 1363 622 1330V1322Q622 1302 546 1216Q492 1134 452 1134H449Q422 1134 411 1182V1186Q411 1210 519 1332Q551 1374 571 1374ZM45 981Q93 969 93 944V551Q93 285 247 192Q343
118 464 118Q694 118 810 355Q834 431 834 507V931Q844 981 879 981Q927 970 927 937V62Q927 34 880 25H881Q834 33 834 70V165H795Q642 25 475 25H449Q233 25 73 238Q0 352 0 522V921Q6 981 45 981Z" />
<glyph unicode="&#xfb;" glyph-name="ucircumflex" horiz-adv-x="1114" d="M463 1378L467 1374H494L497 1378Q523 1378 590 1280Q655 1210 655 1187Q647 1136 606 1136Q572 1136 507 1234L494 1247H463Q392 1136 358 1136Q306 1146 306 1185Q306 1212 405 1318Q443
1378 463 1378ZM46 987Q94 975 94 949V554Q94 286 249 193Q345 119 466 119Q698 119 814 356Q838 433 838 509V935Q848 987 884 987Q932 975 932 941V63Q932 34 885 25V25Q838 34 838 70V165H799Q645 25 477 25H451Q234 25 74 239Q0 353 0 524V926Q6 987 46 987Z"
/>
<glyph unicode="&#xfc;" glyph-name="udieresis" horiz-adv-x="1109" d="M333 1219H338Q382 1209 382 1182V1171Q382 1134 334 1126Q289 1135 289 1171V1182Q289 1209 333 1219ZM608 1219H622Q652 1219 660 1165Q660 1138 610 1126Q567 1134 567 1167V1181Q579
1219 608 1219ZM45 977Q93 965 93 940V549Q93 283 246 191Q342 118 462 118Q691 118 806 353Q830 429 830 505V926Q840 977 876 977Q923 966 923 933V62Q923 34 876 25H877Q830 33 830 70V164H792Q639 25 472 25H447Q232 25 73 237Q0 350 0 519V917Q6 977 45 977Z"
/>
<glyph unicode="&#xfd;" glyph-name="yacute" horiz-adv-x="990" d="M589 1381Q640 1369 640 1336V1329Q640 1308 564 1223Q510 1141 471 1141H467Q440 1141 430 1189V1193Q430 1217 538 1338Q569 1381 589 1381ZM776 992Q827 982 827 947V946Q824 924 466 70Q297
-347 280 -370Q268 -379 251 -383Q202 -373 202 -347V-328Q202 -320 367 77V91L19 941V937Q29 988 67 988Q111 988 150 859Q388 294 399 248H440Q733 963 745 977Q762 992 776 992Z" />
<glyph unicode="&#xfe;" glyph-name="thorn" horiz-adv-x="1131" d="M48 1369H59Q103 1360 103 1335V794Q299 982 489 982Q674 982 824 842Q968 692 968 503Q968 234 712 80Q603 24 500 24H471Q305 24 103 206V-357Q103 -384 52 -395Q21 -395 10 -341V1312Q16
1369 48 1369ZM107 514V496Q107 281 315 161Q391 122 478 122H500Q724 122 843 354Q871 427 871 496V514Q871 695 706 818Q608 885 485 885Q240 885 128 630Q107 567 107 514Z" />
<glyph unicode="&#xff;" glyph-name="ydieresis" horiz-adv-x="990" d="M280 1216H285Q329 1206 329 1179V1168Q329 1131 281 1123Q236 1132 236 1168V1179Q236 1206 280 1216ZM554 1216H569Q598 1216 606 1162Q606 1135 557 1124Q514 1131 514 1164V1178Q526
1216 554 1216ZM764 975Q814 965 814 930V929Q811 907 455 57Q287 -358 270 -381Q259 -390 240 -394Q192 -384 192 -358V-340Q192 -332 357 64V78L10 924V921Q20 971 58 971Q102 971 140 842Q377 280 388 234H429Q721 946 733 960Q749 975 764 975Z" />
</font>
</defs>
</svg>
